<svg width="393" height="286" viewBox="0 0 393 286" fill="none" xmlns="http://www.w3.org/2000/svg">
<g clip-path="url(#clip0_22_2)">
<rect width="393" height="286" fill="white"/>
<mask id="mask0_22_2" style="mask-type:luminance" maskUnits="userSpaceOnUse" x="-42" y="0" width="479" height="286">
<path d="M436.504 0H-41.793V286H436.504V0Z" fill="white"/>
</mask>
<g mask="url(#mask0_22_2)">
<path d="M453.922 279.141C453.922 290.709 445.151 300.082 434.329 300.082H-26.6123C-37.4335 300.082 -46.2051 290.709 -46.2051 279.141V15.1626C-46.2051 3.59388 -37.4335 -5.78406 -26.6123 -5.78406H434.329C445.151 -5.78406 453.922 3.59388 453.922 15.1626V279.141Z" fill="#23353F"/>
<path d="M1.6748 199.827C1.69346 199.856 1.71212 199.884 1.72545 199.91C1.72545 199.904 1.72278 199.899 1.71745 199.899C1.70679 199.879 1.6908 199.85 1.6748 199.827Z" fill="url(#paint0_radial_22_2)"/>
<path d="M3.41362 143.096C3.58755 142.873 3.73472 142.699 3.82838 142.581C3.85514 142.553 3.87387 142.53 3.88725 142.51C3.63571 142.739 3.24771 143.242 2.75 143.928C2.75535 143.923 2.76338 143.911 2.76873 143.905C3.02026 143.594 3.23433 143.319 3.41362 143.096Z" fill="url(#paint1_radial_22_2)"/>
<path d="M2.30315 200.548C2.29244 200.536 2.28442 200.531 2.27371 200.525C2.25498 200.508 2.23625 200.491 2.21752 200.473C2.17738 200.439 2.13724 200.402 2.0971 200.362C2.08105 200.345 2.06499 200.333 2.04894 200.316C2.00077 200.265 1.95796 200.216 1.91247 200.159C1.90176 200.147 1.89374 200.142 1.88571 200.13C1.84022 200.07 1.78938 200.002 1.74121 199.936C1.875 200.136 1.9981 200.293 2.09443 200.399C2.16668 200.482 2.22822 200.545 2.26568 200.579C2.27104 200.591 2.27371 200.591 2.27906 200.596C2.29244 200.582 2.29779 200.565 2.30315 200.548Z" fill="url(#paint2_radial_22_2)"/>
<path d="M1.39355 199.301L1.40961 199.34L1.39891 199.318L1.39355 199.301Z" fill="url(#paint3_radial_22_2)"/>
<path d="M1.53613 199.587L1.55732 199.627L1.56262 199.638L1.54408 199.604L1.53613 199.587Z" fill="url(#paint4_radial_22_2)"/>
<path d="M25.4951 113.893C25.653 113.764 25.7814 113.658 25.8644 113.592C25.8858 113.575 25.8992 113.564 25.9179 113.552C25.7012 113.675 25.3479 113.976 24.8877 114.39C24.8984 114.385 24.9118 114.373 24.9225 114.362C25.1419 114.179 25.3346 114.021 25.4951 113.893Z" fill="url(#paint5_radial_22_2)"/>
<path d="M14.6799 121.143C14.795 121.114 14.9207 121.103 15.0518 121.066H15.0625C14.6344 121.143 14.2277 121.211 13.8584 121.266C13.9547 121.254 14.134 121.231 14.3695 121.206C14.4605 121.189 14.5675 121.166 14.6799 121.143Z" fill="url(#paint6_radial_22_2)"/>
<path d="M1.26074 198.978C1.26343 198.995 1.27148 199.006 1.27417 199.017L1.27148 199.012C1.26611 199 1.26343 198.995 1.26074 198.978Z" fill="url(#paint7_radial_22_2)"/>
<path d="M353.724 22.8045C353.783 22.9275 353.841 23.0505 353.9 23.1677C353.93 23.2249 353.962 23.2793 353.989 23.3365C353.9 23.162 353.812 22.9818 353.724 22.8045Z" fill="url(#paint8_radial_22_2)"/>
<path d="M1.00293 198.174C1.00293 198.18 1.00564 198.191 1.00834 198.197C1.01374 198.208 1.01645 198.22 1.01915 198.231C1.01374 198.208 1.00834 198.191 1.00293 198.174Z" fill="url(#paint9_radial_22_2)"/>
<path d="M381.784 129.974C381.872 130.046 382.003 130.155 382.166 130.286C382.332 130.426 382.533 130.586 382.76 130.778C382.774 130.784 382.787 130.795 382.795 130.807C382.324 130.378 381.96 130.069 381.735 129.94C381.751 129.952 381.762 129.963 381.784 129.974Z" fill="url(#paint10_radial_22_2)"/>
<path d="M383.336 199.887C383.472 199.927 383.601 199.939 383.718 199.964C383.836 199.987 383.946 200.01 384.045 200.024C384.299 200.059 384.481 200.082 384.583 200.09C384.195 200.033 383.769 199.962 383.322 199.879L383.336 199.887Z" fill="url(#paint11_radial_22_2)"/>
<path d="M331.913 8.20708C331.712 8.07266 331.575 7.984 331.517 7.94968C331.771 8.1842 332.204 8.43588 332.748 8.72474C332.627 8.65324 332.512 8.5846 332.405 8.51882C332.218 8.39584 332.052 8.29002 331.913 8.20708Z" fill="url(#paint12_radial_22_2)"/>
<path d="M385.462 40.5623L385.414 40.4336C385.441 40.5051 385.467 40.5794 385.491 40.6452L385.462 40.5623Z" fill="url(#paint13_radial_22_2)"/>
<path d="M393.863 270.998C393.828 270.572 393.798 270.154 393.772 269.751C393.766 269.757 393.761 269.768 393.761 269.768C393.761 269.768 393.547 266.725 393.504 265.887C393.456 265.541 393.41 265.39 393.386 265.33C393.306 265.184 393.156 264.984 392.899 264.755C392.899 264.755 392.913 264.761 392.923 264.766C392.659 264.543 392.581 264.286 392.573 263.985C392.551 263.259 393.012 261.941 393.111 261.677C393.756 259.644 394.73 256.644 394.352 252.237C394.117 249.494 394.481 233.641 394.788 222.006C394.783 221.995 394.786 221.978 394.791 221.966C394.893 218.122 394.989 214.745 395.056 212.454C395.035 212.488 395.029 212.514 395.029 212.514L395.045 209.597C394.877 209.434 394.639 209.268 394.566 209.082C394.497 209.036 394.422 208.993 394.363 208.948C393.801 208.544 393.515 208.05 393.56 207.618C393.56 207.612 393.56 207.606 393.56 207.601C393.568 207.4 393.624 207.203 393.718 207.009C393.301 206.826 392.84 206.634 392.345 206.451C392.345 206.457 392.348 206.457 392.345 206.462C392.343 206.485 392.343 206.514 392.34 206.534C392.337 206.557 392.332 206.58 392.327 206.605C392.305 206.694 392.27 206.788 392.22 206.88C392.123 207.049 391.973 207.192 391.808 207.309C391.642 207.426 391.446 207.509 391.246 207.589C390.839 207.729 390.384 207.806 389.902 207.841C389.418 207.875 388.91 207.869 388.388 207.829C387.861 207.784 387.32 207.718 386.777 207.629C386.638 207.606 386.501 207.583 386.368 207.563C386.226 207.535 386.089 207.503 385.953 207.475C385.68 207.42 385.407 207.357 385.129 207.295C384.853 207.234 384.58 207.177 384.307 207.111C384.034 207.034 383.764 206.96 383.496 206.883C383.226 206.811 382.961 206.737 382.696 206.66C382.632 206.642 382.568 206.625 382.501 206.602C382.437 206.58 382.372 206.562 382.308 206.542C382.18 206.502 382.051 206.459 381.926 206.414C381.671 206.331 381.422 206.251 381.182 206.168C381.061 206.128 380.941 206.091 380.82 206.045C380.705 205.999 380.588 205.956 380.473 205.91C380.245 205.822 380.023 205.736 379.809 205.653C379.592 205.57 379.386 205.496 379.188 205.407C378.795 205.238 378.431 205.089 378.112 204.944C377.797 204.792 377.518 204.663 377.294 204.558C377.066 204.446 376.89 204.357 376.769 204.294C376.651 204.234 376.587 204.194 376.587 204.194C376.587 204.194 376.651 204.229 376.772 204.283C376.898 204.34 377.074 204.423 377.304 204.523C377.377 204.552 377.462 204.583 377.542 204.623C377.013 204.383 376.686 204.214 376.601 204.177C376.587 204.166 376.579 204.166 376.579 204.166C376.579 204.166 380.537 202.384 385.305 202.676C389.207 202.91 391.353 204.054 392.056 205.395C392.121 205.513 392.196 205.664 392.254 205.859C392.281 205.942 392.3 206.039 392.319 206.139C392.886 206.334 393.413 206.525 393.892 206.703C393.922 206.651 393.946 206.602 393.975 206.557C394.05 206.399 394.106 206.305 394.114 206.294C394.17 206.165 394.224 206.03 394.275 205.89C391.947 203.471 389.777 201.512 387.89 200.019C387.869 200.042 387.842 200.064 387.818 200.085C387.807 200.09 387.796 200.102 387.786 200.107C387.74 200.136 387.692 200.165 387.633 200.179C387.617 200.19 387.598 200.196 387.58 200.202C387.518 200.219 387.451 200.236 387.376 200.253C387.358 200.253 387.336 200.259 387.32 200.259C387.248 200.27 387.165 200.282 387.079 200.293C387.079 200.293 387.047 200.293 387.031 200.293C386.929 200.299 386.817 200.305 386.702 200.305C386.683 200.305 386.665 200.305 386.648 200.305C386.624 200.305 386.606 200.305 386.587 200.305C386.587 200.299 386.587 200.299 386.587 200.299C386.076 200.288 385.426 200.222 384.647 200.105C384.647 200.105 384.577 200.105 384.5 200.099C384.39 200.093 384.235 200.087 384.034 200.076C383.935 200.064 383.825 200.047 383.705 200.03C383.582 200.013 383.451 200.002 383.314 199.973C383.178 199.944 383.033 199.916 382.875 199.884C382.72 199.856 382.562 199.801 382.394 199.756C382.223 199.716 382.051 199.65 381.872 199.593C381.784 199.558 381.693 199.533 381.599 199.498C381.508 199.458 381.417 199.427 381.324 199.387C381.23 199.352 381.136 199.315 381.037 199.275C380.941 199.229 380.847 199.186 380.751 199.146C380.652 199.101 380.556 199.058 380.457 199.006C380.363 198.958 380.264 198.906 380.165 198.855C379.769 198.649 379.37 198.414 378.969 198.157C378.578 197.894 378.177 197.619 377.794 197.319C377.601 197.167 377.414 197.013 377.227 196.856C377.042 196.693 376.855 196.532 376.681 196.369C376.328 196.035 375.977 195.712 375.643 195.391C375.474 195.234 375.311 195.079 375.15 194.928C374.984 194.776 374.826 194.63 374.671 194.487C374.361 194.201 374.066 193.935 373.794 193.684C372.878 192.846 372.226 192.242 372.044 192.074C372.033 192.068 372.019 192.056 372.006 192.051C371.565 191.851 374.465 190.967 379.429 192.431C381.832 193.14 383.748 194.588 385.142 195.96C385.158 195.972 385.171 195.989 385.187 196.006C385.249 196.066 385.311 196.129 385.372 196.189C385.402 196.223 385.428 196.249 385.458 196.278C385.514 196.335 385.567 196.395 385.624 196.452C385.656 196.487 385.685 196.518 385.717 196.552C385.765 196.604 385.814 196.658 385.862 196.71C385.897 196.75 385.926 196.787 385.961 196.821C386.001 196.867 386.041 196.916 386.081 196.961C386.119 197.001 386.153 197.044 386.194 197.09C386.223 197.124 386.255 197.162 386.285 197.196C386.327 197.247 386.368 197.296 386.408 197.342C386.429 197.37 386.453 197.399 386.472 197.425C386.52 197.482 386.563 197.536 386.608 197.593C386.622 197.605 386.632 197.622 386.643 197.633C386.697 197.699 386.747 197.768 386.796 197.828C387.301 198.483 387.625 198.983 387.751 199.169C387.804 199.252 387.847 199.327 387.882 199.398C387.89 199.41 387.895 199.421 387.903 199.438C387.933 199.498 387.954 199.567 387.968 199.621C387.97 199.633 387.973 199.644 387.976 199.656V199.661C389.265 200.677 390.713 201.878 392.262 203.276L392.739 203.694C392.739 203.694 392.741 203.7 392.744 203.711C393.298 204.22 393.868 204.755 394.446 205.315C394.609 204.64 394.706 203.814 394.751 202.796C394.762 202.533 394.772 202.25 394.775 201.958L395.31 173.078C395.372 169.771 394.813 168.23 393.919 166.694C393.681 166.377 393.576 166.102 393.555 165.873C393.555 165.862 393.552 165.845 393.552 165.833C393.552 165.827 393.552 165.827 393.552 165.822C393.55 165.744 393.552 165.67 393.566 165.604C393.571 165.593 393.571 165.587 393.574 165.581C393.592 165.51 393.614 165.441 393.643 165.381L393.646 165.376C393.78 165.112 394.01 164.967 394.098 164.918C394.35 164.749 394.641 164.629 394.92 164.532C394.882 164.498 394.837 164.432 394.805 164.309C394.433 164.151 394.229 164.051 394.229 164.051C394.229 164.051 394.229 164.046 394.229 164.034C394.176 164.011 394.146 163.994 394.146 163.994C394.146 163.994 394.144 163.654 394.301 163.677C394.301 163.677 393.426 160.085 393.723 157.962C393.723 157.962 393.721 158.157 393.761 158.477C393.772 158.314 393.785 158.165 393.806 158.02C393.806 158.02 393.804 158.288 393.868 158.712C393.825 157.511 393.804 156.163 393.801 154.691C393.788 151.771 393.841 148.401 393.919 144.938C393.665 144.866 393.413 144.792 393.162 144.726C392.894 144.649 392.629 144.575 392.364 144.503C392.3 144.48 392.236 144.463 392.169 144.446C392.105 144.423 392.04 144.4 391.976 144.38C391.85 144.34 391.719 144.297 391.596 144.257C391.345 144.174 391.093 144.089 390.85 144.011C390.729 143.966 390.611 143.928 390.491 143.883C390.373 143.837 390.258 143.794 390.143 143.748C389.916 143.665 389.694 143.574 389.477 143.497C389.263 143.414 389.054 143.334 388.856 143.251C388.463 143.085 388.099 142.933 387.78 142.782C387.465 142.636 387.189 142.507 386.959 142.401C386.734 142.284 386.557 142.195 386.437 142.132C386.317 142.072 386.255 142.038 386.255 142.038C386.255 142.038 386.319 142.072 386.442 142.127C386.566 142.181 386.742 142.261 386.972 142.361C387.039 142.39 387.125 142.427 387.202 142.455C386.675 142.221 386.349 142.052 386.268 142.015C386.255 142.009 386.244 142.004 386.244 142.004C386.244 142.004 389.696 140.451 394.037 140.485C394.061 139.63 394.087 138.78 394.112 137.937C394.007 137.931 393.876 137.925 393.71 137.92C393.608 137.902 393.496 137.885 393.378 137.874C393.255 137.851 393.124 137.845 392.99 137.814C392.851 137.785 392.704 137.757 392.549 137.731C392.394 137.696 392.236 137.648 392.064 137.602C391.896 137.556 391.725 137.496 391.548 137.433C391.457 137.405 391.366 137.373 391.272 137.339C391.181 137.305 391.09 137.267 390.994 137.233C390.898 137.193 390.807 137.162 390.71 137.122C390.617 137.076 390.52 137.033 390.424 136.987C390.325 136.941 390.229 136.904 390.132 136.853C390.033 136.798 389.934 136.753 389.838 136.695C389.442 136.495 389.041 136.261 388.645 136.003C388.249 135.74 387.85 135.466 387.467 135.165C387.277 135.014 387.087 134.854 386.9 134.702C386.718 134.533 386.528 134.379 386.351 134.21C385.998 133.881 385.65 133.552 385.316 133.238C385.147 133.08 384.981 132.926 384.818 132.769C384.655 132.623 384.497 132.477 384.342 132.334C384.031 132.048 383.737 131.776 383.464 131.53C382.549 130.687 381.896 130.089 381.714 129.917C381.703 129.917 381.687 129.906 381.677 129.9C381.238 129.7 384.133 128.816 389.1 130.28C391.2 130.901 392.931 132.079 394.267 133.292C394.449 127.801 394.615 123.236 394.607 121.394C394.604 121.097 394.601 120.88 394.588 120.734C394.556 120.316 394.529 119.896 394.497 119.493C394.494 119.498 394.491 119.504 394.491 119.504C394.491 119.504 394.275 116.461 394.229 115.629C394.186 115.277 394.141 115.125 394.117 115.071C394.034 114.919 393.884 114.725 393.627 114.496C393.627 114.496 393.638 114.496 393.651 114.502C393.389 114.279 393.309 114.027 393.298 113.727C393.279 113 393.74 111.682 393.839 111.413C394.483 109.385 395.457 106.379 395.08 101.978C395.003 101.057 394.992 98.6717 395.024 95.4657C394.941 94.7106 394.842 93.9241 394.724 93.0919C394.532 91.7134 394.272 90.1718 393.932 88.4844C393.922 88.4501 393.911 88.4158 393.903 88.3786C393.889 88.3128 393.871 88.207 393.847 88.0783C393.756 87.798 393.718 87.4634 393.534 87.1946C393.378 86.9658 392.402 85.7588 391.446 84.7979C391.404 84.7578 391.363 84.7207 391.318 84.6806C391.307 84.6692 391.291 84.6577 391.278 84.6463L391.267 84.6692C391.115 84.9094 390.916 85.0896 390.702 85.2154C390.274 85.4786 389.817 85.5672 389.399 85.6015C389.338 85.6073 389.282 85.6015 389.22 85.6073C387.513 85.6902 384.741 84.8808 380.719 82.1438C380.633 82.0866 380.55 82.0265 380.459 81.9693L380.438 81.9579C380.331 81.8921 380.165 81.7949 379.964 81.6662C379.56 81.4145 378.974 81.0684 378.281 80.6337C377.933 80.4164 377.569 80.159 377.181 79.8901C376.793 79.627 376.386 79.3496 375.961 79.0579C375.546 78.7576 375.121 78.4372 374.682 78.1198C374.254 77.7966 373.81 77.4706 373.381 77.1302C372.951 76.7899 372.52 76.4495 372.097 76.1149C371.674 75.7803 371.27 75.4342 370.869 75.1025C370.673 74.9395 370.473 74.7736 370.285 74.6163C370.101 74.4533 369.914 74.2988 369.734 74.1415C369.376 73.8355 369.039 73.5381 368.731 73.2635C368.113 72.7172 367.602 72.2482 367.243 71.9279C367.064 71.7649 366.925 71.639 366.831 71.5475C366.735 71.4646 366.684 71.4188 366.684 71.4188C366.684 71.4188 366.737 71.4588 366.839 71.5361C366.941 71.619 367.093 71.7305 367.278 71.8821C367.299 71.8993 367.326 71.9164 367.345 71.9393C366.748 71.4417 366.347 71.1013 366.197 70.9726C366.149 70.9555 366.122 70.9498 366.122 70.9498L366.13 70.9154L366.138 70.8868C366.138 70.8868 366.167 70.8983 366.218 70.9154C367.082 70.9154 374.168 71.0098 381.492 74.3131C382.817 74.9109 383.997 75.52 385.035 76.1292C384.947 76.0749 384.856 76.0177 384.77 75.9662C384.478 75.786 384.219 75.643 384.005 75.5258C383.577 75.2855 383.333 75.1454 383.333 75.1454C383.333 75.1454 383.395 75.1797 383.512 75.234C383.627 75.2912 383.804 75.3742 384.021 75.4857C384.235 75.5973 384.5 75.7374 384.802 75.9004C384.955 75.9834 385.11 76.0692 385.278 76.1693C385.447 76.2636 385.618 76.3637 385.8 76.4753C385.886 76.5296 385.98 76.5925 386.073 76.644C386.167 76.7041 386.26 76.767 386.357 76.8271C386.549 76.9443 386.745 77.0845 386.946 77.2189C387.344 77.4992 387.762 77.7937 388.174 78.1398C388.998 78.8148 389.83 79.6156 390.502 80.5765C390.665 80.8225 390.82 81.0684 390.954 81.3316C391.024 81.466 391.08 81.6004 391.144 81.7348C391.192 81.8692 391.256 82.0094 391.299 82.1467C391.492 82.6986 391.567 83.2964 391.503 83.8684C391.489 83.9342 391.481 84.0028 391.465 84.0743C391.46 84.1258 391.446 84.1687 391.433 84.2202C391.452 84.2373 391.473 84.2602 391.489 84.2774C391.965 84.7006 393.167 85.9705 393.453 86.2708C392.568 82.3669 391.27 77.808 389.356 72.7573C389.3 72.64 389.255 72.5113 389.217 72.3941C389.175 72.2825 389.132 72.1653 389.086 72.0537C388.797 71.742 388.364 71.3101 387.647 70.7009C387.561 70.8182 387.465 70.9183 387.355 71.007C387.173 71.1471 386.967 71.2472 386.758 71.3187C386.338 71.4588 385.907 71.5017 385.487 71.5017C385.067 71.5075 384.66 71.456 384.267 71.3959C383.876 71.3359 383.504 71.2443 383.151 71.15C382.803 71.0613 382.477 70.9498 382.18 70.8497C381.88 70.7438 381.61 70.638 381.369 70.5436C381.131 70.4435 380.927 70.3549 380.762 70.2748C380.59 70.2033 380.465 70.1347 380.371 70.0918C380.283 70.0517 380.234 70.0231 380.234 70.0231C380.234 70.0231 380.331 70.0632 380.497 70.1175C379.081 69.5255 377.462 68.7104 375.645 67.6093C375.519 67.5321 375.399 67.452 375.276 67.3748C375.346 67.432 375.407 67.4691 375.453 67.5035C375.546 67.5692 375.597 67.6036 375.597 67.6036C375.597 67.6036 375.544 67.5692 375.447 67.5149C375.348 67.4577 375.201 67.3805 375.022 67.2689C374.84 67.1631 374.62 67.0344 374.366 66.8828C374.112 66.737 373.836 66.5425 373.534 66.3452C373.232 66.145 372.897 65.9305 372.565 65.6759C372.394 65.5529 372.223 65.4242 372.046 65.2955C371.87 65.1668 371.688 65.0324 371.511 64.8866C371.334 64.7407 371.152 64.5948 370.971 64.4518C370.789 64.3003 370.599 64.1544 370.419 63.9942C370.237 63.8312 370.055 63.6711 369.871 63.5138C369.78 63.4365 369.689 63.3507 369.598 63.2735C369.504 63.1906 369.416 63.1048 369.325 63.0218C368.972 62.6815 368.608 62.3526 368.273 61.998C368.105 61.8235 367.933 61.6519 367.77 61.4774C367.607 61.3058 367.452 61.1314 367.294 60.9626C366.978 60.6223 366.692 60.2762 366.413 59.9559C366.143 59.627 365.889 59.3124 365.664 59.0178C365.555 58.8663 365.445 58.729 365.343 58.5946C365.244 58.4544 365.153 58.3257 365.062 58.2027C364.886 57.9568 364.741 57.7337 364.615 57.5535C364.498 57.3733 364.407 57.2303 364.345 57.1302C364.284 57.0301 364.254 56.9729 364.254 56.9729C364.254 56.9729 364.292 57.0244 364.358 57.1188C364.423 57.2132 364.53 57.3476 364.661 57.5221C364.698 57.5678 364.744 57.6279 364.787 57.6851C364.53 57.3333 364.377 57.1045 364.324 57.0216C364.294 57.0044 364.275 56.9987 364.275 56.9987C364.275 56.9987 364.294 57.0044 364.321 57.0158C364.308 56.9987 364.3 56.9815 364.3 56.9815C364.3 56.9815 372.996 57.1445 380.641 61.8407C383.065 63.3364 384.727 64.7293 385.838 65.9533C385.883 65.9991 385.926 66.042 385.977 66.0935C386.054 66.1707 386.14 66.2651 386.228 66.368C386.311 66.4681 386.408 66.5682 386.504 66.6855C386.592 66.8028 386.691 66.9257 386.79 67.0602C386.884 67.1946 386.991 67.329 387.082 67.4777C387.13 67.5549 387.178 67.635 387.229 67.7122C387.277 67.7895 387.32 67.8753 387.368 67.9582C387.548 68.2928 387.722 68.6732 387.826 69.0908C387.879 69.2967 387.914 69.5198 387.922 69.7514C387.922 69.8058 387.922 69.863 387.92 69.9202L387.901 70.1003C387.887 70.1604 387.871 70.2233 387.858 70.2834C387.845 70.3177 387.834 70.3434 387.823 70.372C388.19 70.6723 388.49 70.924 388.717 71.1214C387.604 68.3128 386.311 65.367 384.794 62.3126C384.668 62.0552 384.535 61.8092 384.406 61.5518L383.395 59.607C380.933 55.0053 378.15 50.6981 375.059 46.7256C374.797 46.4396 374.548 46.1049 374.548 46.1049C373.959 45.4557 372.82 44.6807 371.428 43.8827C371.407 43.9113 371.385 43.9371 371.359 43.9657H371.356C371.324 43.9943 371.289 44.0229 371.254 44.0486C371.254 44.0486 371.246 44.0486 371.246 44.0543C371.203 44.0772 371.163 44.1058 371.115 44.1258H371.11C370.484 44.4204 369.113 44.4948 367.096 44.3889C367.064 44.3947 367.002 44.4004 366.898 44.4004C366.756 44.4061 366.547 44.4175 366.277 44.4233C366.146 44.4233 365.996 44.4175 365.838 44.4118C365.755 44.4118 365.67 44.4061 365.581 44.4061C365.538 44.4061 365.496 44.4061 365.45 44.4004C365.405 44.3947 365.359 44.3889 365.311 44.3889C365.126 44.3718 364.926 44.3489 364.717 44.3346C364.508 44.3117 364.292 44.2717 364.064 44.2402C363.834 44.2059 363.601 44.1573 363.355 44.1001C363.235 44.0772 363.109 44.0515 362.983 44.0171C362.86 43.9885 362.734 43.9571 362.606 43.9228C362.475 43.8827 362.346 43.8513 362.215 43.8169C362.084 43.7769 361.95 43.734 361.819 43.694C361.688 43.6482 361.554 43.611 361.418 43.5595C361.284 43.5081 361.15 43.4594 361.014 43.4137C360.468 43.2135 359.916 42.9732 359.365 42.7101C358.814 42.4356 358.263 42.1581 357.725 41.8321C357.455 41.6748 357.195 41.5032 356.93 41.3345C356.668 41.1657 356.406 40.9941 356.16 40.8082C355.656 40.4507 355.172 40.0989 354.69 39.7586C354.455 39.5899 354.225 39.424 353.992 39.2552C353.762 39.0922 353.537 38.9378 353.32 38.7862C352.882 38.4802 352.469 38.1827 352.081 37.9139C350.8 37.0101 349.879 36.3609 349.614 36.1779C349.598 36.1722 349.577 36.1607 349.561 36.155C348.956 35.9605 352.737 34.562 359.472 35.7517C362.732 36.3266 365.413 37.8453 367.382 39.3439C367.404 39.3553 367.42 39.3725 367.438 39.3897C367.527 39.4583 367.612 39.5241 367.701 39.5899C367.749 39.6299 367.794 39.6614 367.842 39.7014C367.909 39.7586 367.979 39.8129 368.043 39.8644C368.102 39.913 368.164 39.9645 368.222 40.016C368.271 40.056 368.316 40.0932 368.362 40.1333C368.436 40.1962 368.511 40.262 368.584 40.322C368.608 40.3449 368.637 40.3678 368.659 40.3878C368.747 40.465 368.832 40.5451 368.918 40.6166C368.923 40.6223 368.931 40.628 368.937 40.6338C370.13 41.7177 370.882 42.6272 371.128 42.9075C371.177 42.9618 371.217 43.0133 371.254 43.0705C371.27 43.0876 371.284 43.1105 371.297 43.1305C371.318 43.1591 371.34 43.1877 371.353 43.2135C371.369 43.2364 371.38 43.2592 371.391 43.2821C371.407 43.305 371.417 43.3336 371.431 43.3536C371.439 43.3765 371.45 43.3937 371.455 43.4137C371.463 43.4308 371.468 43.4537 371.476 43.4737C372.228 43.8598 372.803 44.1773 373.175 44.3832C370.486 41.1657 367.586 38.1827 364.484 35.4343C363.895 34.9481 362.271 33.5753 361.691 33.0719C357.013 29.2853 352.419 26.2794 348.247 23.9771C347.763 23.7426 346.526 23.0676 346.296 22.9389C343.072 21.2801 340.152 20.0618 337.725 19.2581C337.709 19.2867 337.693 19.3096 337.672 19.3353C337.664 19.3468 337.656 19.3582 337.645 19.3639C337.61 19.404 337.57 19.4412 337.519 19.4755C337.503 19.4869 337.487 19.4984 337.471 19.5098C337.418 19.5441 337.361 19.5756 337.295 19.6099C337.273 19.6213 337.249 19.6328 337.233 19.6442C337.171 19.6728 337.113 19.7014 337.046 19.7214C337.008 19.7386 336.971 19.7558 336.928 19.7729C336.864 19.7958 336.791 19.8187 336.717 19.8444C336.663 19.8616 336.615 19.8787 336.559 19.8959H336.553C336.061 20.0418 335.429 20.1819 334.667 20.3163C334.645 20.322 334.597 20.3335 334.52 20.3564C334.415 20.385 334.263 20.4279 334.073 20.4793C333.971 20.4965 333.867 20.5194 333.746 20.5394C333.626 20.5623 333.5 20.5966 333.364 20.6052C333.227 20.6223 333.077 20.6452 332.925 20.6681C332.77 20.6853 332.606 20.691 332.435 20.7024C332.264 20.7196 332.085 20.7196 331.9 20.7196C331.809 20.7196 331.715 20.7196 331.622 20.7196C331.523 20.7196 331.429 20.7139 331.333 20.7139C331.234 20.7081 331.135 20.7024 331.033 20.6967C330.931 20.691 330.832 20.6795 330.728 20.6738C330.629 20.6624 330.525 20.6567 330.418 20.6452C330.316 20.6281 330.209 20.6166 330.104 20.5995C329.679 20.5451 329.243 20.465 328.804 20.3649C328.363 20.2591 327.918 20.1419 327.482 19.996C327.263 19.9302 327.049 19.8444 326.829 19.7672C326.618 19.69 326.404 19.6042 326.198 19.5155C325.783 19.3353 325.374 19.158 324.98 18.9893C324.785 18.9063 324.59 18.8205 324.397 18.7376C324.207 18.6547 324.02 18.5803 323.838 18.5031C323.474 18.3515 323.131 18.2056 322.815 18.0741C321.75 17.6336 320.982 17.3133 320.763 17.2189C320.75 17.2189 320.734 17.2132 320.734 17.2132C320.255 17.1675 322.802 15.5315 327.878 15.2856C330.337 15.1683 332.507 15.8318 334.161 16.5983C334.156 16.5926 334.156 16.5926 334.156 16.5926C334.207 16.6155 334.257 16.6441 334.311 16.6641C334.316 16.6641 334.322 16.6698 334.322 16.6698C334.533 16.7699 334.726 16.8643 334.91 16.9673C334.918 16.973 334.926 16.973 334.926 16.973C335.114 17.0731 335.293 17.1675 335.459 17.2704C335.459 17.2704 335.467 17.2761 335.472 17.2761C335.641 17.3762 335.799 17.4706 335.949 17.5621C335.951 17.5679 335.951 17.5679 335.957 17.5679C336.62 17.9826 337.091 18.3401 337.316 18.5117C337.345 18.5288 337.378 18.5574 337.399 18.5717C337.466 18.6232 337.525 18.6718 337.573 18.7233C337.584 18.7347 337.597 18.7462 337.608 18.7576C337.648 18.8034 337.683 18.8463 337.707 18.892C337.715 18.9035 337.723 18.9149 337.728 18.9264C339.055 19.3611 340.54 19.893 342.146 20.5308H342.138C341.747 20.3306 341.078 19.6757 340.251 18.7548L340.219 18.7605C340.209 18.7662 340.195 18.7662 340.195 18.7662C340.15 18.7719 340.115 18.7719 340.072 18.7719C340.059 18.7719 340.048 18.7719 340.035 18.7719C339.981 18.7662 339.92 18.7548 339.853 18.7433C339.85 18.7376 339.845 18.7376 339.845 18.7376C339.778 18.7204 339.708 18.6976 339.639 18.6775C339.623 18.6718 339.607 18.6661 339.59 18.6604C339.518 18.6318 339.438 18.5975 339.355 18.566C339.35 18.5603 339.344 18.5603 339.344 18.5603C339.248 18.5145 339.152 18.4659 339.05 18.4087C339.042 18.403 339.031 18.3973 339.018 18.3915C338.93 18.3429 338.839 18.2914 338.745 18.2285C338.724 18.2171 338.702 18.2056 338.683 18.1885C338.472 18.0598 338.247 17.9025 338.009 17.7252C337.974 17.6966 337.942 17.6737 337.907 17.6479C337.822 17.5822 337.739 17.5135 337.648 17.442C337.605 17.4077 337.565 17.3762 337.522 17.3419C337.42 17.259 337.319 17.1675 337.217 17.0788C337.153 17.0216 337.089 16.9615 337.022 16.8986C336.965 16.8471 336.909 16.7985 336.853 16.747H336.858C336.23 16.155 335.558 15.44 334.881 14.5734C332.66 11.7363 331.475 7.89248 331.475 7.89248C331.483 7.90392 331.499 7.91536 331.512 7.9268C331.555 7.94968 331.699 8.0269 331.935 8.1556C332.077 8.23282 332.245 8.33578 332.443 8.4416C332.639 8.54742 332.863 8.66468 333.107 8.7991C333.594 9.0565 334.156 9.36824 334.758 9.69714C334.913 9.78008 335.063 9.8716 335.218 9.96026C335.373 10.0546 335.531 10.1433 335.681 10.2491C335.756 10.3006 335.836 10.3492 335.914 10.395C335.986 10.4579 336.064 10.5065 336.136 10.5637C336.294 10.6695 336.436 10.7868 336.588 10.8983C336.735 11.0156 336.874 11.1443 337.019 11.2616C337.158 11.3903 337.297 11.5132 337.428 11.6362C337.699 11.8936 337.947 12.1682 338.183 12.4284C338.293 12.5686 338.41 12.6973 338.512 12.8346C338.616 12.969 338.721 13.1034 338.814 13.2378C338.908 13.378 338.996 13.5067 339.085 13.6354C339.165 13.7641 339.243 13.8985 339.315 14.0157C339.39 14.1387 339.454 14.2617 339.516 14.3847C339.574 14.4962 339.636 14.6078 339.681 14.7136C339.775 14.9309 339.863 15.1111 339.925 15.2656C340.04 15.583 340.107 15.7689 340.107 15.7689C340.107 15.7689 340.077 15.7031 340.029 15.5945C340.222 16.115 340.348 16.6012 340.42 17.0245C340.436 17.1188 340.449 17.2046 340.457 17.2876C340.471 17.3762 340.476 17.4592 340.484 17.545C340.49 17.5907 340.492 17.6336 340.498 17.6737C340.5 17.7366 340.5 17.7967 340.5 17.8539C340.503 17.8939 340.503 17.9254 340.503 17.9597C340.503 18.0169 340.498 18.0598 340.498 18.1113C340.492 18.1456 340.492 18.177 340.49 18.2114C340.484 18.2514 340.479 18.2886 340.474 18.3286C340.468 18.3629 340.463 18.3887 340.455 18.423C340.449 18.4516 340.444 18.4773 340.436 18.5059C340.436 18.5117 340.433 18.5174 340.433 18.5231C341.33 19.5784 341.464 19.7786 342.21 20.2934C342.582 20.5451 342.804 20.7224 342.911 20.8397L343.214 20.957C343.214 20.957 343.219 20.9627 343.222 20.9684C344.924 21.672 346.74 22.4985 348.651 23.4652C348.651 23.4595 348.659 23.4652 348.68 23.4823L348.691 23.4881C349.095 23.694 349.505 23.9056 349.917 24.1258C350.238 24.2889 350.532 24.4376 350.685 24.5348C350.685 24.5348 350.687 24.5405 350.693 24.5405C353.398 26.0163 356.237 27.7695 359.119 29.8573C359.237 29.9402 359.379 30.0403 359.526 30.149C359.507 29.966 359.215 29.3997 358.726 28.5131C358.303 28.8935 357.551 28.5245 356.237 26.8772C356.069 26.6712 355.905 26.4482 355.745 26.2222C355.699 26.1679 355.659 26.105 355.616 26.042C355.461 25.8247 355.311 25.6016 355.161 25.3728C355.124 25.3156 355.092 25.2613 355.054 25.1983C354.931 25.0096 354.808 24.8065 354.69 24.6063C354.648 24.5348 354.61 24.4662 354.567 24.4004C354.428 24.1602 354.294 23.9142 354.163 23.6682C354.12 23.591 354.08 23.5052 354.038 23.428C353.989 23.3336 353.941 23.2421 353.896 23.1534C353.815 22.9961 353.738 22.8417 353.66 22.6787C353.647 22.6501 353.633 22.6301 353.62 22.6015C353.62 22.5957 353.617 22.5957 353.617 22.5957C351.958 19.138 350.864 15.1111 350.711 11.9823C350.711 11.9823 350.776 12.0595 350.901 12.2111C350.912 12.2282 351.065 12.3941 351.324 12.6858C351.461 12.8374 351.621 13.0205 351.817 13.2264C352.009 13.4323 352.226 13.6725 352.461 13.9299C352.7 14.1816 352.959 14.4562 353.235 14.7393C353.374 14.8852 353.521 15.0253 353.668 15.1683C353.743 15.2455 353.818 15.3199 353.89 15.3971C353.968 15.4629 354.048 15.543 354.126 15.6088C354.439 15.9062 354.781 16.2008 355.105 16.524C355.429 16.8471 355.739 17.1989 356.042 17.5621L356.259 17.8367C356.331 17.9311 356.4 18.0255 356.467 18.1227C356.609 18.3057 356.74 18.5031 356.869 18.6976C357.126 19.0837 357.358 19.4783 357.572 19.8702C357.781 20.262 357.968 20.6509 358.124 21.0256C358.166 21.12 358.204 21.2144 358.244 21.3059C358.282 21.4003 358.314 21.4889 358.348 21.5862C358.415 21.7663 358.488 21.9379 358.541 22.1067C358.648 22.447 358.755 22.7616 358.822 23.0448C358.892 23.3308 358.964 23.5681 358.999 23.7769C359.082 24.1916 359.13 24.4261 359.13 24.4261C359.13 24.4261 359.071 24.1916 358.969 23.7826C358.924 23.5824 358.846 23.3422 358.763 23.0619C358.758 23.0448 358.75 23.0276 358.747 23.0104C358.752 23.0333 358.758 23.0562 358.763 23.0762C358.825 23.2936 358.884 23.5052 358.932 23.7197C358.94 23.7483 358.948 23.7826 358.956 23.8141C359.009 24.0429 359.052 24.266 359.09 24.4891C359.103 24.5606 359.111 24.6292 359.124 24.7007C359.148 24.8637 359.167 25.0124 359.181 25.164C359.189 25.2298 359.194 25.3042 359.199 25.3699C359.215 25.5759 359.229 25.7789 359.226 25.9677C359.221 27.0459 359.132 27.9439 358.838 28.3701C359.459 29.414 360.074 30.2748 360.39 30.7782C360.593 30.9355 360.767 31.0699 360.872 31.1643C361.517 31.6619 362.164 32.1767 362.814 32.7058C365.322 34.7736 367.703 36.9844 369.964 39.3353C369.948 39.3124 369.94 39.301 369.94 39.301C369.951 39.3182 369.988 39.3553 370.031 39.4068C372.544 42.0266 374.899 44.8265 377.09 47.7923C377.09 47.7809 377.088 47.7695 377.088 47.7695L377.912 48.9249C378.115 49.2109 378.318 49.494 378.522 49.7858L378.607 49.9087C380.2 52.1996 381.698 54.5906 383.103 57.0702V57.0645L383.213 57.2647C383.255 57.3362 383.298 57.4105 383.341 57.482C383.357 57.1588 383.36 56.481 383.349 55.5115C382.819 55.3656 382.298 54.4561 381.8 52.3598C381.725 52.0423 381.655 51.7163 381.596 51.3874C381.578 51.2987 381.562 51.2015 381.546 51.1071C381.489 50.7953 381.439 50.4807 381.396 50.1576C381.38 50.0632 381.369 49.9631 381.358 49.8658C381.324 49.6084 381.297 49.351 381.27 49.0908C381.259 48.9792 381.246 48.8677 381.235 48.7504C381.206 48.433 381.187 48.1069 381.166 47.778C381.158 47.6608 381.155 47.5378 381.15 47.4148C381.144 47.3433 381.142 47.2747 381.139 47.2089C381.139 47.2432 381.142 47.269 381.144 47.3033C381.134 47.0573 381.123 46.8114 381.117 46.5654C381.123 46.7456 381.125 46.9229 381.134 47.0974C381.123 46.8686 381.115 46.6455 381.112 46.4167C381.112 46.3881 381.112 46.3623 381.112 46.3337C381.112 46.328 381.112 46.3166 381.112 46.3109C381.112 46.3166 381.112 46.3223 381.112 46.3223C381.042 41.692 381.851 36.7642 383.231 33.335C383.231 33.335 383.263 33.4637 383.322 33.7097C383.344 33.7783 383.421 34.0329 383.539 34.4361C383.609 34.6764 383.694 34.9624 383.799 35.297C383.903 35.6259 384.015 35.9948 384.144 36.4038C384.27 36.8128 384.417 37.2475 384.569 37.7108C384.644 37.9396 384.735 38.1742 384.821 38.4144C384.864 38.5374 384.906 38.6546 384.949 38.7776C385 38.9006 385.046 39.0236 385.096 39.1408C385.19 39.3868 385.289 39.6385 385.393 39.8959C385.447 40.0189 385.492 40.1476 385.546 40.2763L385.621 40.4765L385.688 40.6767C385.781 40.9341 385.862 41.2086 385.95 41.4746C385.996 41.6147 386.028 41.7549 386.068 41.8864C386.108 42.0266 386.145 42.161 386.178 42.3011L386.277 42.7187C386.309 42.8588 386.333 42.999 386.359 43.1363C386.386 43.2821 386.416 43.4165 386.437 43.5595C386.458 43.6997 386.483 43.8398 386.501 43.98C386.587 44.5377 386.64 45.0925 386.673 45.6273C386.705 46.165 386.715 46.6827 386.697 47.1803C386.691 47.3033 386.689 47.4205 386.686 47.5435C386.675 47.6608 386.67 47.778 386.662 47.8953C386.64 48.1241 386.632 48.3472 386.606 48.5588C386.555 48.9878 386.517 49.3796 386.448 49.72C386.384 50.066 386.341 50.3635 386.277 50.6094C386.164 51.0956 386.1 51.3702 386.1 51.3702C386.1 51.3702 386.153 51.0899 386.244 50.6009C386.298 50.3549 386.327 50.0546 386.381 49.7114C386.397 49.5999 386.413 49.4826 386.426 49.3596C386.413 49.4597 386.4 49.5541 386.384 49.6513C386.386 49.6456 386.389 49.6342 386.392 49.6227C386.384 49.6857 386.373 49.74 386.362 49.8029C386.351 49.8687 386.341 49.9373 386.33 49.9974C386.293 50.209 386.258 50.415 386.215 50.6237C386.21 50.6409 386.204 50.6581 386.202 50.6752C386.159 50.8697 386.116 51.0613 386.068 51.2444C386.057 51.2901 386.046 51.3273 386.036 51.3731C385.931 51.7706 385.814 52.1453 385.683 52.4913C385.669 52.5256 385.656 52.56 385.642 52.5914C385.575 52.7602 385.509 52.926 385.439 53.0776C384.882 54.2674 384.331 55.1997 383.788 55.4571C384.002 57.748 384.513 59.178 384.385 59.4125C384.805 60.2105 385.222 61.0113 385.624 61.8264C387.783 66.1821 389.501 70.312 390.874 74.1387L391.104 74.765H391.096C392.798 79.5984 393.94 83.9313 394.708 87.6121C394.845 87.3833 394.989 87.0601 395.144 86.6798C395.171 85.3727 395.198 84.0314 395.23 82.6843C395.072 82.4269 394.949 82.1467 394.855 81.8692C394.821 81.7634 394.788 81.6576 394.754 81.5518C394.73 81.4402 394.708 81.3344 394.684 81.2343C394.673 81.1771 394.663 81.1228 394.649 81.0713C394.641 81.0141 394.633 80.9655 394.628 80.9083C394.609 80.8025 394.596 80.6966 394.58 80.5908C394.556 80.3849 394.545 80.1733 394.529 79.9702C394.521 79.77 394.521 79.5669 394.518 79.3725C394.518 79.1837 394.532 78.9921 394.537 78.809C394.542 78.7204 394.542 78.6289 394.553 78.5402C394.558 78.4573 394.566 78.3657 394.574 78.2828C394.59 78.1141 394.607 77.9539 394.62 77.8023C394.639 77.6851 394.655 77.5735 394.671 77.4677C394.802 76.2894 395.056 74.9137 395.457 73.3178C395.575 68.8105 395.69 64.7836 395.765 62.1781C395.744 62.2125 395.736 62.2353 395.736 62.2353L395.757 59.3181C395.586 59.1551 395.348 58.995 395.273 58.8091C394.58 58.3858 394.219 57.8252 394.272 57.339C394.272 57.3333 394.272 57.3276 394.272 57.3219C394.28 57.0244 394.398 56.7298 394.588 56.4438C394.623 56.3952 394.652 56.3323 394.684 56.2751C394.759 56.1235 394.815 56.0291 394.821 56.012C395.193 55.2255 395.385 54.0958 395.455 52.5199C395.465 52.2511 395.474 51.9737 395.479 51.6819L396.017 22.7959C396.078 19.4955 395.519 17.954 394.625 16.4153C394.384 16.0921 394.277 15.8175 394.256 15.5887C394.256 15.5773 394.256 15.5659 394.253 15.5544C394.253 15.5487 394.256 15.543 394.256 15.543C394.253 15.46 394.256 15.3857 394.272 15.3199C394.272 15.3142 394.272 15.3027 394.277 15.297C394.293 15.2255 394.32 15.1569 394.35 15.1025L394.352 15.0968C394.483 14.8337 394.711 14.6821 394.802 14.6335C395.051 14.4705 395.345 14.3418 395.623 14.2531C395.554 14.1816 395.431 13.9786 395.498 13.4924C394.992 12.8832 394.973 12.1138 395.115 11.1186C395.222 10.3635 395.425 9.47692 395.575 8.43302C395.712 7.50066 395.803 6.4396 395.749 5.22696C395.645 2.71874 395.578 -1.6828 395.535 -5.3579C395.573 -5.38078 395.613 -5.39794 395.655 -5.41796C395.979 -5.5581 396.306 -5.6868 396.635 -5.80978H-4.18499C-4.20104 -4.92032 -4.22245 -4.12238 -4.24119 -3.4703C-4.25456 -3.10136 -4.25189 -2.7553 -4.23851 -2.42068C-4.21175 -1.77718 -4.1502 -1.17372 -4.07795 -0.650344C-3.96557 0.244836 -3.76755 0.862596 -3.68192 1.5061C-3.57221 2.35552 -3.58559 3.0076 -3.96824 3.52812C-3.91473 3.9371 -4.01106 4.11442 -4.06458 4.17734C-3.85318 4.25456 -3.62841 4.36038 -3.4411 4.50052C-3.3742 4.54628 -3.19759 4.67498 -3.09591 4.89806V4.90378C-3.07182 4.95526 -3.05309 5.0096 -3.03971 5.07252C-3.03971 5.07824 -3.03704 5.08396 -3.03436 5.08968C-3.02366 5.14688 -3.02366 5.21266 -3.02366 5.27844C-3.02366 5.27844 -3.02366 5.28416 -3.02366 5.28988C-3.02366 5.2956 -3.02366 5.30704 -3.02633 5.31848C-3.03971 5.51296 -3.11999 5.74748 -3.30195 6.02204C-3.9843 7.32906 -4.40441 8.6418 -4.35089 11.456L-3.89332 36.0692C-3.88529 36.3209 -3.87994 36.5611 -3.86924 36.7842C-3.81304 38.1313 -3.66587 39.0922 -3.37955 39.7672C-3.37687 39.7786 -3.33406 39.8558 -3.27519 39.9903C-3.25111 40.036 -3.22703 40.0904 -3.20294 40.1361C-3.05577 40.3764 -2.97014 40.6338 -2.96211 40.8797C-2.96211 40.8854 -2.96211 40.8912 -2.95944 40.8969C-2.9193 41.3087 -3.19224 41.7863 -3.71939 42.1438C-3.77558 42.3069 -3.95486 42.4441 -4.08598 42.5786L-4.06725 45.0639C-4.06725 45.0639 -4.0726 45.0467 -4.08866 45.0124C-3.86656 52.8717 -3.25111 75.8089 -3.48123 78.9206C-3.7622 82.6758 -3.01563 85.2326 -2.52059 86.9658C-2.44834 87.1946 -2.09513 88.3186 -2.11118 88.9363C-2.11386 89.1937 -2.17541 89.4111 -2.3761 89.5998C-2.36539 89.5941 -2.35737 89.5884 -2.35737 89.5884C-2.55003 89.7829 -2.66242 89.9573 -2.72931 90.0803C-2.74804 90.1289 -2.78015 90.2605 -2.81226 90.5551C-2.84438 91.2643 -3.00225 93.8612 -3.00225 93.8612L-3.01028 93.8498C-3.02901 94.1958 -3.05309 94.5476 -3.0745 94.9051C-3.08253 95.0281 -3.08788 95.2169 -3.08788 95.4686C-3.09323 98.9978 -2.40553 114.242 -2.41891 123.851C-2.41891 125.104 -2.43229 126.254 -2.46172 127.275C-2.41623 126.911 -2.41624 126.683 -2.41624 126.683C-2.40286 126.811 -2.38948 126.946 -2.38145 127.08C-2.35201 126.806 -2.35201 126.64 -2.35201 126.64C-2.12456 128.45 -2.78283 131.505 -2.78283 131.505C-2.66242 131.487 -2.66509 131.779 -2.66509 131.779C-2.66509 131.779 -2.68918 131.791 -2.72664 131.813C-2.72664 131.825 -2.72664 131.825 -2.72664 131.825C-2.72664 131.825 -2.77213 131.853 -2.84438 131.885C-2.89522 132.125 -2.99155 132.337 -3.13069 132.534C-3.07718 132.943 -3.17083 133.115 -3.22435 133.183C-3.01563 133.255 -2.79086 133.366 -2.60087 133.507C-2.56608 133.529 -2.50454 133.572 -2.43497 133.641C-1.64023 132.669 -0.845493 131.736 -0.0587851 130.852C0.0616295 130.701 0.307811 130.438 0.567371 130.16C0.888477 129.809 1.20423 129.468 1.51998 129.134C1.52534 129.122 1.53604 129.116 1.53871 129.111C1.55745 129.088 1.5628 129.082 1.5628 129.088C3.0934 127.469 4.57851 126.022 5.98067 124.738C5.98067 124.726 5.98335 124.721 5.98335 124.721L6.4329 124.323C7.93139 122.976 9.3282 121.815 10.5752 120.831L10.5778 120.825C10.5778 120.814 10.5805 120.802 10.5832 120.791C10.5992 120.734 10.618 120.679 10.6447 120.611C10.6528 120.599 10.6581 120.588 10.6661 120.576C10.7009 120.505 10.7384 120.431 10.7919 120.353C10.9284 120.153 11.2923 119.593 11.8676 118.869C11.873 118.858 11.8837 118.846 11.889 118.835C11.9372 118.778 11.9827 118.723 12.0335 118.663C12.0496 118.64 12.0683 118.623 12.0844 118.6C12.1272 118.549 12.17 118.5 12.2155 118.443C12.2422 118.414 12.269 118.383 12.2931 118.354C12.3305 118.309 12.3707 118.266 12.4108 118.22C12.4456 118.174 12.4777 118.137 12.5152 118.097C12.55 118.057 12.5847 118.02 12.6195 117.98C12.665 117.928 12.7052 117.885 12.7506 117.834C12.7828 117.799 12.8149 117.768 12.847 117.734C12.9005 117.679 12.9513 117.622 13.0049 117.565C13.0316 117.536 13.061 117.513 13.0878 117.482C13.144 117.422 13.2082 117.359 13.2698 117.299C13.2805 117.287 13.2938 117.276 13.3072 117.259C14.6505 115.935 16.4996 114.545 18.8169 113.855C23.6067 112.443 26.403 113.298 25.9775 113.487C25.9668 113.492 25.9534 113.504 25.9427 113.509C25.7715 113.667 25.1373 114.247 24.2516 115.062C23.9867 115.303 23.703 115.566 23.406 115.837C23.2561 115.978 23.1063 116.118 22.9457 116.261C22.7905 116.407 22.63 116.558 22.4694 116.713C22.143 117.013 21.8085 117.328 21.4687 117.645C21.3001 117.808 21.1181 117.962 20.9415 118.12C20.7622 118.271 20.5803 118.42 20.393 118.566C20.0237 118.855 19.641 119.118 19.2584 119.375C18.8704 119.621 18.4904 119.85 18.1051 120.045C18.0087 120.096 17.9151 120.145 17.8214 120.19C17.7278 120.242 17.6341 120.279 17.5378 120.325C17.4441 120.365 17.3532 120.408 17.2595 120.448C17.1658 120.488 17.0749 120.525 16.9839 120.559C16.8929 120.599 16.8046 120.631 16.7163 120.665C16.628 120.699 16.537 120.725 16.4487 120.754C16.2801 120.811 16.1115 120.871 15.951 120.917C15.7851 120.957 15.6352 121.005 15.4854 121.034C15.3329 121.068 15.1937 121.094 15.0599 121.123C14.9261 121.151 14.8004 121.157 14.6853 121.18C14.5676 121.191 14.4605 121.209 14.3669 121.22C14.1742 121.231 14.0217 121.237 13.9173 121.243C13.8478 121.249 13.8023 121.249 13.7755 121.249C13.0263 121.36 12.4001 121.429 11.9051 121.437C11.9051 121.437 11.8703 121.437 11.8515 121.437C11.8275 121.437 11.8087 121.437 11.7873 121.437C11.6776 121.437 11.5733 121.437 11.4769 121.432C11.4769 121.432 11.4448 121.432 11.4288 121.426C11.3485 121.42 11.2736 121.409 11.204 121.403C11.1853 121.397 11.1638 121.392 11.1638 121.392C11.0729 121.38 11.006 121.363 10.9498 121.343C10.9337 121.337 10.915 121.332 10.8989 121.326C10.8427 121.303 10.7919 121.28 10.7491 121.254C10.7384 121.249 10.7304 121.237 10.7197 121.231C10.6956 121.214 10.6688 121.191 10.6501 121.171C8.61106 122.782 6.22686 124.964 3.66872 127.701C3.66604 127.712 3.65801 127.718 3.64463 127.735C3.64463 127.735 3.41986 127.987 3.13354 128.304C3.82659 128.007 4.97722 127.543 6.38206 127.069C6.39811 126.974 6.41952 126.88 6.43825 126.794C6.50247 126.605 6.57204 126.46 6.63626 126.348C7.31594 125.052 9.38439 123.957 13.1467 123.722C17.7465 123.442 21.565 125.164 21.565 125.164C21.565 125.164 21.5543 125.17 21.5409 125.175C21.4633 125.215 21.1502 125.37 20.6391 125.604C20.7167 125.564 20.7943 125.539 20.8639 125.51C21.0833 125.41 21.2573 125.33 21.375 125.281C21.4927 125.224 21.5543 125.193 21.5543 125.193C21.5543 125.193 21.4954 125.233 21.3804 125.287C21.2626 125.347 21.094 125.433 20.8773 125.544C20.6579 125.644 20.3876 125.773 20.0826 125.913C19.7775 126.059 19.427 126.205 19.047 126.365C18.857 126.442 18.6536 126.522 18.4476 126.6C18.2389 126.677 18.0248 126.763 17.8054 126.846C17.6957 126.891 17.5806 126.934 17.4709 126.974C17.3558 127.02 17.2381 127.052 17.123 127.097C16.8849 127.175 16.6467 127.255 16.4032 127.332C16.2801 127.378 16.157 127.415 16.0339 127.455C15.9724 127.478 15.9109 127.501 15.8493 127.515C15.7851 127.538 15.7209 127.555 15.6593 127.572C15.4051 127.644 15.1509 127.718 14.8887 127.784C14.6318 127.861 14.3722 127.935 14.11 128.007C13.8424 128.067 13.5828 128.124 13.3153 128.187C13.0477 128.244 12.7854 128.298 12.5205 128.356C12.3867 128.384 12.2556 128.413 12.1218 128.439C11.9907 128.462 11.8569 128.484 11.7258 128.504C11.2013 128.593 10.6768 128.662 10.1711 128.699C9.66803 128.733 9.17567 128.745 8.71007 128.71C8.24447 128.676 7.80295 128.599 7.41494 128.464C7.21961 128.393 7.03497 128.313 6.87174 128.196C6.71119 128.084 6.56937 127.95 6.47571 127.781C6.42487 127.698 6.39276 127.606 6.37135 127.518C6.366 127.489 6.36332 127.466 6.35797 127.446C6.3553 127.423 6.35529 127.4 6.35262 127.38C6.35262 127.375 6.35262 127.369 6.35262 127.369C3.91757 128.29 2.35218 129.268 2.12206 129.468C2.07389 129.508 2.0391 129.523 2.01235 129.523C0.564695 131.164 -0.923095 132.969 -2.42159 134.942C-2.43764 134.965 -2.45102 134.988 -2.46708 135.014C-3.14675 136.321 -3.56686 137.634 -3.51335 140.448L-3.44645 144.223C1.40492 141.866 4.40458 142.061 3.95503 142.413C3.94433 142.418 3.92827 142.435 3.91489 142.447C3.71955 142.721 3.02383 143.694 2.05783 145.05C1.77151 145.453 1.45576 145.887 1.1293 146.345C0.960723 146.574 0.792144 146.814 0.620888 147.054C0.452307 147.3 0.275699 147.546 0.101767 147.804C-0.256801 148.307 -0.620719 148.83 -0.992666 149.362C-1.1773 149.631 -1.38067 149.894 -1.57601 150.155C-1.77938 150.412 -1.98007 150.675 -2.19414 150.927C-2.54735 151.356 -2.9193 151.759 -3.2966 152.151L-3.25111 154.53C-0.848169 153.386 0.794818 152.92 0.794818 152.92C0.794818 152.92 0.428225 153.607 -0.254124 154.759C-0.117654 154.542 0.00276064 154.345 0.112472 154.167C0.337245 153.787 0.513853 153.492 0.634267 153.283C0.752006 153.083 0.813552 152.972 0.813552 152.972C0.813552 152.972 0.757357 153.083 0.64497 153.301C0.535259 153.507 0.369356 153.815 0.155285 154.199C-0.0614608 154.579 -0.32905 155.048 -0.636776 155.571C-0.947178 156.103 -1.30307 156.695 -1.70713 157.325C-1.90514 157.648 -2.11654 157.974 -2.33596 158.314C-2.44567 158.483 -2.55806 158.655 -2.67044 158.835C-2.78818 159.009 -2.90324 159.181 -3.02366 159.361C-3.06647 159.421 -3.11196 159.49 -3.15478 159.555L-3.05309 165.058C-3.04774 165.31 -3.03972 165.55 -3.02901 165.773C-2.97282 167.12 -2.82564 168.081 -2.542 168.756C-2.53665 168.767 -2.49383 168.845 -2.43764 168.979C-2.41088 169.025 -2.39215 169.074 -2.36539 169.125C-2.21822 169.365 -2.12992 169.617 -2.12456 169.869C-2.12456 169.874 -2.12189 169.88 -2.12189 169.886C-2.07907 170.3 -2.35201 170.775 -2.87916 171.133C-2.93803 171.296 -3.11731 171.43 -3.24576 171.567L-3.22703 174.053C-3.22703 174.053 -3.23238 174.036 -3.24843 174.001C-3.18689 176.269 -3.08788 179.793 -2.98887 183.731C-2.82832 183.671 -2.70523 183.625 -2.63298 183.597C-2.58214 183.562 -2.55806 183.539 -2.55806 183.539L-2.542 183.568L-2.52594 183.597C-2.52594 183.597 -2.55003 183.614 -2.58749 183.648C-2.65171 183.754 -2.78283 183.971 -2.97282 184.292C-2.97282 184.303 -2.97282 184.32 -2.97282 184.332C-2.94338 184.292 -2.93 184.272 -2.93 184.272C-2.93 184.272 -2.94338 184.3 -2.97282 184.343C-2.95409 185.035 -2.93803 185.733 -2.92465 186.442C-2.87381 186.66 -2.82029 186.877 -2.77213 187.1L-2.76677 187.089L-2.72396 187.283C-2.3092 189.171 -1.92655 191.087 -1.59474 193.02C-0.773245 197.802 -0.235395 202.27 0.0883865 206.399C0.176691 206.019 0.310485 205.639 0.487093 205.215C0.76806 204.535 1.68321 202.181 2.28528 200.562C2.27993 200.556 2.27993 200.556 2.27458 200.551C2.23177 200.511 2.16754 200.462 2.0953 200.382C1.94545 200.23 1.73138 199.984 1.51196 199.621C1.29521 199.264 1.08114 198.783 0.912559 198.197C0.743978 197.611 0.623563 196.924 0.570046 196.169C0.513852 195.414 0.516528 194.588 0.575397 193.724C0.63159 192.863 0.73595 191.959 0.899179 191.033C1.05973 190.106 1.26042 189.162 1.50928 188.213C1.54139 188.095 1.5735 187.978 1.60561 187.861C1.6404 187.744 1.67251 187.626 1.70729 187.509C1.77152 187.269 1.84109 187.034 1.90799 186.8C1.97488 186.56 2.04178 186.325 2.10868 186.085L2.32275 185.375L2.53682 184.672C2.61174 184.432 2.68934 184.203 2.76427 183.968C2.91411 183.499 3.06129 183.036 3.22184 182.578C3.52689 181.658 3.84532 180.768 4.16108 179.901C4.31895 179.467 4.4688 179.046 4.62668 178.634C4.78456 178.22 4.93975 177.819 5.0896 177.422C5.24213 177.03 5.3893 176.65 5.5338 176.284C5.68097 175.92 5.82012 175.563 5.95659 175.223C6.22953 174.548 6.48374 173.927 6.71654 173.381C6.94667 172.837 7.15271 172.363 7.32129 171.974C7.48987 171.582 7.62634 171.281 7.72 171.07C7.80295 170.887 7.85111 170.784 7.86182 170.764L7.86449 170.758C7.86449 170.758 9.86069 177.116 9.08469 187.426C8.54149 194.693 6.45698 198.743 4.64006 200.202C4.62668 200.213 4.6133 200.225 4.59992 200.236C4.5357 200.288 4.47415 200.33 4.41261 200.376C4.38317 200.393 4.35909 200.416 4.33233 200.433C4.26276 200.479 4.19051 200.522 4.12094 200.556C4.10488 200.568 4.08883 200.579 4.07277 200.585C3.98447 200.631 3.89884 200.668 3.81588 200.702C3.80251 200.708 3.78913 200.714 3.77575 200.719C3.70617 200.742 3.6366 200.765 3.56971 200.785C3.54562 200.791 3.52154 200.797 3.50281 200.797C3.44662 200.814 3.38775 200.82 3.33155 200.831C3.30747 200.831 3.28339 200.831 3.26198 200.837C3.20579 200.837 3.15227 200.837 3.09875 200.837C3.07734 200.837 3.05594 200.837 3.03721 200.831C2.98101 200.831 2.92749 200.82 2.87398 200.808C2.8606 200.802 2.84187 200.797 2.84187 200.797C2.75891 200.774 2.69202 200.757 2.6278 200.725C0.679757 206.234 0.366679 206.411 0.355976 207.149C0.350624 207.546 0.307811 208.133 0.238238 208.396L0.259643 208.693C0.259643 208.693 0.256969 208.687 0.251617 208.687C0.682434 215.609 0.52188 221.48 0.147257 226.116L0.141905 226.199C0.0428978 227.412 -0.069488 228.544 -0.189903 229.585C-0.47087 232.011 -0.802679 234.104 -1.13716 235.863C-0.636774 238.689 -0.112302 243.436 -0.575229 249.594C-0.754513 252.002 -1.10773 254.053 -1.55995 255.777C-1.54925 255.872 -1.53855 255.977 -1.5332 256.083C-1.50109 255.809 -1.50376 255.643 -1.50376 255.643C-1.27631 257.453 -1.93458 260.508 -1.93458 260.508C-1.81416 260.491 -1.81684 260.782 -1.81684 260.782C-1.81684 260.782 -1.83824 260.794 -1.87571 260.817C-1.87571 260.822 -1.87571 260.828 -1.87571 260.828C-1.87571 260.828 -1.98809 260.888 -2.18879 260.991C-2.24765 261.186 -2.32793 261.371 -2.45102 261.537C-2.3975 261.946 -2.49116 262.118 -2.54468 262.187C-2.33596 262.258 -2.11119 262.367 -1.92387 262.504C-1.8543 262.55 -1.68037 262.678 -1.57868 262.902L-1.57601 262.907C-1.55193 262.959 -1.53052 263.013 -1.51982 263.076C-1.51714 263.082 -1.51446 263.087 -1.51446 263.087C-1.50376 263.153 -1.50376 263.216 -1.50376 263.282C-1.50376 263.282 -1.50376 263.288 -1.50376 263.293C-1.50376 263.305 -1.50376 263.316 -1.50376 263.322C-1.51981 263.516 -1.59742 263.751 -1.78205 264.026C-2.46172 265.338 -2.88184 266.651 -2.831 269.46L-2.37342 294.076C-2.36539 294.322 -2.35736 294.562 -2.34934 294.791C-2.29047 296.132 -2.1433 297.093 -1.85965 297.774C-1.8543 297.779 -1.81148 297.862 -1.75529 297.991C-1.72853 298.042 -1.70713 298.091 -1.68304 298.137C-1.53587 298.377 -1.44757 298.634 -1.43954 298.886V298.897C-1.3994 299.284 -1.63488 299.718 -2.08978 300.064H393.108C393.258 289.093 393.9 275.222 393.884 271.633C393.879 271.361 393.871 271.138 393.863 270.998Z" fill="url(#paint14_radial_22_2)"/>
<path d="M358.73 22.9304C358.741 22.9647 358.749 22.9961 358.76 23.0305C358.757 23.0247 358.757 23.019 358.757 23.0133C358.747 22.9876 358.739 22.959 358.73 22.9304Z" fill="url(#paint15_radial_22_2)"/>
<path d="M372.124 192.137C372.209 192.208 372.34 192.317 372.506 192.448C372.675 192.583 372.873 192.749 373.103 192.94C373.114 192.946 373.127 192.957 373.138 192.969C372.664 192.54 372.3 192.225 372.078 192.096C372.094 192.114 372.105 192.119 372.124 192.137Z" fill="url(#paint16_radial_22_2)"/>
<path d="M392.993 137.728C393.132 137.768 393.261 137.785 393.381 137.811C393.499 137.828 393.609 137.851 393.705 137.871C393.871 137.894 394.005 137.911 394.106 137.922V137.917C393.756 137.859 393.381 137.799 392.982 137.722C392.988 137.728 392.993 137.728 392.993 137.728Z" fill="url(#paint17_radial_22_2)"/>
<path d="M349.734 36.2437C349.86 36.3209 350.039 36.4267 350.272 36.5726C350.502 36.7184 350.78 36.89 351.104 37.0988C351.104 37.0988 351.12 37.1045 351.125 37.1102C350.472 36.6584 349.969 36.3323 349.667 36.2065C349.686 36.2151 349.707 36.2265 349.734 36.2437Z" fill="#D7EDF3"/>
<path d="M333.749 20.4908C333.87 20.4736 333.979 20.4564 334.078 20.445C334.322 20.3935 334.501 20.3621 334.6 20.3449C334.226 20.4078 333.821 20.4736 333.391 20.5337C333.519 20.5308 333.639 20.5022 333.749 20.4908Z" fill="#D7EDF3"/>
<path d="M365.326 44.286C365.374 44.2917 365.417 44.2974 365.465 44.3089C365.508 44.3089 365.548 44.3146 365.594 44.3203C365.679 44.326 365.762 44.3317 365.845 44.3432C366.006 44.3546 366.153 44.3661 366.287 44.3775C366.627 44.3889 366.873 44.3947 367.009 44.4004C366.493 44.3718 365.928 44.3346 365.326 44.2888V44.286Z" fill="url(#paint18_radial_22_2)"/>
<path d="M320.856 17.2618C320.957 17.2962 321.107 17.3448 321.297 17.4077C321.485 17.4792 321.715 17.5593 321.977 17.6537C321.985 17.6537 321.996 17.6594 321.996 17.6594C321.455 17.4363 321.035 17.279 320.797 17.239C320.813 17.2447 320.832 17.2504 320.856 17.2618Z" fill="#D7EDF3"/>
</g>
</g>
<defs>
<radialGradient id="paint0_radial_22_2" cx="0" cy="0" r="1" gradientUnits="userSpaceOnUse" gradientTransform="translate(128.199 329.556) scale(393.718 422.473)">
<stop stop-color="#D7EDF3"/>
<stop offset="0.2484" stop-color="#D8EDF0"/>
<stop offset="0.4198" stop-color="#DBEDE7"/>
<stop offset="0.568" stop-color="#DFEDD8"/>
<stop offset="0.7031" stop-color="#E6EEC2"/>
<stop offset="0.8292" stop-color="#EFEEA6"/>
<stop offset="0.9471" stop-color="#F9EF84"/>
<stop offset="1" stop-color="#FFEF72"/>
</radialGradient>
<radialGradient id="paint1_radial_22_2" cx="0" cy="0" r="1" gradientUnits="userSpaceOnUse" gradientTransform="translate(130.631 331.026) scale(400.589 428.155)">
<stop stop-color="#D7EDF3"/>
<stop offset="0.2484" stop-color="#D8EDF0"/>
<stop offset="0.4198" stop-color="#DBEDE7"/>
<stop offset="0.568" stop-color="#DFEDD8"/>
<stop offset="0.7031" stop-color="#E6EEC2"/>
<stop offset="0.8292" stop-color="#EFEEA6"/>
<stop offset="0.9471" stop-color="#F9EF84"/>
<stop offset="1" stop-color="#FFEF72"/>
</radialGradient>
<radialGradient id="paint2_radial_22_2" cx="0" cy="0" r="1" gradientUnits="userSpaceOnUse" gradientTransform="translate(130.991 331.542) scale(401.904 429.55)">
<stop stop-color="#D7EDF3"/>
<stop offset="0.2484" stop-color="#D8EDF0"/>
<stop offset="0.4198" stop-color="#DBEDE7"/>
<stop offset="0.568" stop-color="#DFEDD8"/>
<stop offset="0.7031" stop-color="#E6EEC2"/>
<stop offset="0.8292" stop-color="#EFEEA6"/>
<stop offset="0.9471" stop-color="#F9EF84"/>
<stop offset="1" stop-color="#FFEF72"/>
</radialGradient>
<radialGradient id="paint3_radial_22_2" cx="0" cy="0" r="1" gradientUnits="userSpaceOnUse" gradientTransform="translate(1.40158 199.321) scale(0.0144503 0.0152288)">
<stop stop-color="#D7EDF3"/>
<stop offset="0.2484" stop-color="#D8EDF0"/>
<stop offset="0.4198" stop-color="#DBEDE7"/>
<stop offset="0.568" stop-color="#DFEDD8"/>
<stop offset="0.7031" stop-color="#E6EEC2"/>
<stop offset="0.8292" stop-color="#EFEEA6"/>
<stop offset="0.9471" stop-color="#F9EF84"/>
<stop offset="1" stop-color="#FFEF72"/>
</radialGradient>
<radialGradient id="paint4_radial_22_2" cx="0" cy="0" r="1" gradientUnits="userSpaceOnUse" gradientTransform="translate(1.54964 199.612) scale(0.0188064 0.0202292)">
<stop stop-color="#D7EDF3"/>
<stop offset="0.2484" stop-color="#D8EDF0"/>
<stop offset="0.4198" stop-color="#DBEDE7"/>
<stop offset="0.568" stop-color="#DFEDD8"/>
<stop offset="0.7031" stop-color="#E6EEC2"/>
<stop offset="0.8292" stop-color="#EFEEA6"/>
<stop offset="0.9471" stop-color="#F9EF84"/>
<stop offset="1" stop-color="#FFEF72"/>
</radialGradient>
<radialGradient id="paint5_radial_22_2" cx="0" cy="0" r="1" gradientUnits="userSpaceOnUse" gradientTransform="translate(130.961 330.287) scale(399.789 427.296)">
<stop stop-color="#D7EDF3"/>
<stop offset="0.2484" stop-color="#D8EDF0"/>
<stop offset="0.4198" stop-color="#DBEDE7"/>
<stop offset="0.568" stop-color="#DFEDD8"/>
<stop offset="0.7031" stop-color="#E6EEC2"/>
<stop offset="0.8292" stop-color="#EFEEA6"/>
<stop offset="0.9471" stop-color="#F9EF84"/>
<stop offset="1" stop-color="#FFEF72"/>
</radialGradient>
<radialGradient id="paint6_radial_22_2" cx="0" cy="0" r="1" gradientUnits="userSpaceOnUse" gradientTransform="translate(130.572 327.491) scale(395.546 422.76)">
<stop stop-color="#D7EDF3"/>
<stop offset="0.2484" stop-color="#D8EDF0"/>
<stop offset="0.4198" stop-color="#DBEDE7"/>
<stop offset="0.568" stop-color="#DFEDD8"/>
<stop offset="0.7031" stop-color="#E6EEC2"/>
<stop offset="0.8292" stop-color="#EFEEA6"/>
<stop offset="0.9471" stop-color="#F9EF84"/>
<stop offset="1" stop-color="#FFEF72"/>
</radialGradient>
<radialGradient id="paint7_radial_22_2" cx="0" cy="0" r="1" gradientUnits="userSpaceOnUse" gradientTransform="translate(1.26665 198.997) scale(0.0136945 0.0143828)">
<stop stop-color="#D7EDF3"/>
<stop offset="0.2484" stop-color="#D8EDF0"/>
<stop offset="0.4198" stop-color="#DBEDE7"/>
<stop offset="0.568" stop-color="#DFEDD8"/>
<stop offset="0.7031" stop-color="#E6EEC2"/>
<stop offset="0.8292" stop-color="#EFEEA6"/>
<stop offset="0.9471" stop-color="#F9EF84"/>
<stop offset="1" stop-color="#FFEF72"/>
</radialGradient>
<radialGradient id="paint8_radial_22_2" cx="0" cy="0" r="1" gradientUnits="userSpaceOnUse" gradientTransform="translate(344.673 331.159) scale(400.811 428.395)">
<stop stop-color="#D7EDF3"/>
<stop offset="0.2484" stop-color="#D8EDF0"/>
<stop offset="0.4198" stop-color="#DBEDE7"/>
<stop offset="0.568" stop-color="#DFEDD8"/>
<stop offset="0.7031" stop-color="#E6EEC2"/>
<stop offset="0.8292" stop-color="#EFEEA6"/>
<stop offset="0.9471" stop-color="#F9EF84"/>
<stop offset="1" stop-color="#FFEF72"/>
</radialGradient>
<radialGradient id="paint9_radial_22_2" cx="0" cy="0" r="1" gradientUnits="userSpaceOnUse" gradientTransform="translate(1.01104 198.201) scale(0.0194648 0.0205211)">
<stop stop-color="#D7EDF3"/>
<stop offset="0.2484" stop-color="#D8EDF0"/>
<stop offset="0.4198" stop-color="#DBEDE7"/>
<stop offset="0.568" stop-color="#DFEDD8"/>
<stop offset="0.7031" stop-color="#E6EEC2"/>
<stop offset="0.8292" stop-color="#EFEEA6"/>
<stop offset="0.9471" stop-color="#F9EF84"/>
<stop offset="1" stop-color="#FFEF72"/>
</radialGradient>
<radialGradient id="paint10_radial_22_2" cx="0" cy="0" r="1" gradientUnits="userSpaceOnUse" gradientTransform="translate(344.622 330.954) scale(400.473 428.034)">
<stop stop-color="#D7EDF3"/>
<stop offset="0.2484" stop-color="#D8EDF0"/>
<stop offset="0.4198" stop-color="#DBEDE7"/>
<stop offset="0.568" stop-color="#DFEDD8"/>
<stop offset="0.7031" stop-color="#E6EEC2"/>
<stop offset="0.8292" stop-color="#EFEEA6"/>
<stop offset="0.9471" stop-color="#F9EF84"/>
<stop offset="1" stop-color="#FFEF72"/>
</radialGradient>
<radialGradient id="paint11_radial_22_2" cx="0" cy="0" r="1" gradientUnits="userSpaceOnUse" gradientTransform="translate(344.644 330.028) scale(397.784 425.19)">
<stop stop-color="#D7EDF3"/>
<stop offset="0.2484" stop-color="#D8EDF0"/>
<stop offset="0.4198" stop-color="#DBEDE7"/>
<stop offset="0.568" stop-color="#DFEDD8"/>
<stop offset="0.7031" stop-color="#E6EEC2"/>
<stop offset="0.8292" stop-color="#EFEEA6"/>
<stop offset="0.9471" stop-color="#F9EF84"/>
<stop offset="1" stop-color="#FFEF72"/>
</radialGradient>
<radialGradient id="paint12_radial_22_2" cx="0" cy="0" r="1" gradientUnits="userSpaceOnUse" gradientTransform="translate(344.634 328.709) scale(397.782 425.146)">
<stop stop-color="#D7EDF3"/>
<stop offset="0.2484" stop-color="#D8EDF0"/>
<stop offset="0.4198" stop-color="#DBEDE7"/>
<stop offset="0.568" stop-color="#DFEDD8"/>
<stop offset="0.7031" stop-color="#E6EEC2"/>
<stop offset="0.8292" stop-color="#EFEEA6"/>
<stop offset="0.9471" stop-color="#F9EF84"/>
<stop offset="1" stop-color="#FFEF72"/>
</radialGradient>
<radialGradient id="paint13_radial_22_2" cx="0" cy="0" r="1" gradientUnits="userSpaceOnUse" gradientTransform="translate(343.711 330.702) scale(398.366 428.012)">
<stop stop-color="#D7EDF3"/>
<stop offset="0.2484" stop-color="#D8EDF0"/>
<stop offset="0.4198" stop-color="#DBEDE7"/>
<stop offset="0.568" stop-color="#DFEDD8"/>
<stop offset="0.7031" stop-color="#E6EEC2"/>
<stop offset="0.8292" stop-color="#EFEEA6"/>
<stop offset="0.9471" stop-color="#F9EF84"/>
<stop offset="1" stop-color="#FFEF72"/>
</radialGradient>
<radialGradient id="paint14_radial_22_2" cx="0" cy="0" r="1" gradientUnits="userSpaceOnUse" gradientTransform="translate(285.129 331.069) scale(775.303 828.65)">
<stop stop-color="#D7EDF3"/>
<stop offset="0.2484" stop-color="#D8EDF0"/>
</radialGradient>
<radialGradient id="paint15_radial_22_2" cx="0" cy="0" r="1" gradientUnits="userSpaceOnUse" gradientTransform="translate(344.716 339.07) scale(414.157 439.354)">
<stop stop-color="#D7EDF3"/>
<stop offset="0.2484" stop-color="#D8EDF0"/>
<stop offset="0.4198" stop-color="#DBEDE7"/>
<stop offset="0.568" stop-color="#DFEDD8"/>
<stop offset="0.7031" stop-color="#E6EEC2"/>
<stop offset="0.8292" stop-color="#EFEEA6"/>
<stop offset="0.9471" stop-color="#F9EF84"/>
<stop offset="1" stop-color="#FFEF72"/>
</radialGradient>
<radialGradient id="paint16_radial_22_2" cx="0" cy="0" r="1" gradientUnits="userSpaceOnUse" gradientTransform="translate(344.614 331.567) scale(402.079 429.75)">
<stop stop-color="#D7EDF3"/>
<stop offset="0.2484" stop-color="#D8EDF0"/>
<stop offset="0.4198" stop-color="#DBEDE7"/>
<stop offset="0.568" stop-color="#DFEDD8"/>
<stop offset="0.7031" stop-color="#E6EEC2"/>
<stop offset="0.8292" stop-color="#EFEEA6"/>
<stop offset="0.9471" stop-color="#F9EF84"/>
<stop offset="1" stop-color="#FFEF72"/>
</radialGradient>
<radialGradient id="paint17_radial_22_2" cx="0" cy="0" r="1" gradientUnits="userSpaceOnUse" gradientTransform="translate(344.595 335.079) scale(408.462 436.567)">
<stop stop-color="#D7EDF3"/>
<stop offset="0.2484" stop-color="#D8EDF0"/>
<stop offset="0.4198" stop-color="#DBEDE7"/>
<stop offset="0.568" stop-color="#DFEDD8"/>
<stop offset="0.7031" stop-color="#E6EEC2"/>
<stop offset="0.8292" stop-color="#EFEEA6"/>
<stop offset="0.9471" stop-color="#F9EF84"/>
<stop offset="1" stop-color="#FFEF72"/>
</radialGradient>
<radialGradient id="paint18_radial_22_2" cx="0" cy="0" r="1" gradientUnits="userSpaceOnUse" gradientTransform="translate(344.599 332.917) scale(403.276 431.015)">
<stop stop-color="#D7EDF3"/>
<stop offset="0.2484" stop-color="#D8EDF0"/>
<stop offset="0.4198" stop-color="#DBEDE7"/>
<stop offset="0.568" stop-color="#DFEDD8"/>
</radialGradient>
<clipPath id="clip0_22_2">
<rect width="393" height="286" fill="white"/>
</clipPath>
</defs>
</svg>
