<svg width="16" height="16" viewBox="0 0 16 16" fill="none" xmlns="http://www.w3.org/2000/svg">
<rect width="16" height="16" rx="8" fill="white"/>
<mask id="mask0_10_78" style="mask-type:luminance" maskUnits="userSpaceOnUse" x="1" y="1" width="14" height="14">
<path d="M15 1H1V15H15V1Z" fill="white"/>
</mask>
<g mask="url(#mask0_10_78)">
<mask id="mask1_10_78" style="mask-type:luminance" maskUnits="userSpaceOnUse" x="1" y="1" width="14" height="15">
<path d="M15 1.24658H1V15.0001H15V1.24658Z" fill="white"/>
</mask>
<g mask="url(#mask1_10_78)">
<mask id="mask2_10_78" style="mask-type:luminance" maskUnits="userSpaceOnUse" x="1" y="1" width="14" height="15">
<path d="M15 1.24658H1V15.0001H15V1.24658Z" fill="white"/>
</mask>
<g mask="url(#mask2_10_78)">
<path d="M2.47565 10.0525L2.54209 10.249L1.6524 10.255L1.5752 10.0265L2.28992 9.50342L2.36003 9.71057L1.77077 10.0903L2.47565 10.0525Z" fill="#111111"/>
<path d="M2.61516 10.4118L2.6987 10.5953L1.92632 10.9349L1.84277 10.7514L2.61516 10.4118ZM3.04793 10.3297C3.06366 10.3642 3.06534 10.3971 3.05282 10.4283C3.04098 10.4597 3.01914 10.4824 2.98714 10.4964C2.95476 10.5107 2.92292 10.5116 2.89168 10.499C2.86068 10.4871 2.83723 10.4637 2.8215 10.4292C2.80638 10.396 2.80447 10.3638 2.81577 10.3326C2.8273 10.3018 2.8493 10.2793 2.88176 10.2651C2.91368 10.2511 2.94544 10.2499 2.97699 10.2618C3.00914 10.2739 3.03281 10.2965 3.04793 10.3297Z" fill="#111111"/>
<path d="M2.99862 11.059C3.0575 11.1552 3.08026 11.2565 3.06689 11.3633L2.92332 11.3566C2.925 11.2724 2.90805 11.2013 2.87254 11.1432C2.85161 11.1091 2.82871 11.0862 2.80388 11.0747C2.77891 11.0639 2.75554 11.0649 2.73386 11.0778C2.71736 11.0875 2.70614 11.0997 2.70018 11.1143C2.69384 11.129 2.69246 11.15 2.69598 11.177C2.69926 11.2035 2.70766 11.241 2.72133 11.2894C2.74737 11.3792 2.75463 11.4529 2.74309 11.5103C2.73111 11.568 2.69399 11.6153 2.63183 11.652C2.55966 11.6947 2.4855 11.6993 2.40937 11.6658C2.33346 11.6327 2.26931 11.5735 2.217 11.4881C2.18141 11.4301 2.15819 11.3715 2.14727 11.3121C2.1362 11.2535 2.13582 11.1973 2.14613 11.1435L2.29779 11.1707C2.28794 11.2609 2.30368 11.3398 2.34499 11.4072C2.36851 11.4456 2.39516 11.4717 2.42503 11.4855C2.4545 11.4989 2.48299 11.4976 2.51032 11.4813C2.53117 11.469 2.54545 11.4551 2.55309 11.4394C2.56004 11.4237 2.56149 11.402 2.55745 11.3741C2.55362 11.3466 2.54431 11.3054 2.52942 11.2501C2.5049 11.1657 2.50025 11.0957 2.51545 11.0403C2.53057 10.9848 2.56508 10.9411 2.619 10.9092C2.65902 10.8856 2.70209 10.8758 2.74844 10.8798C2.79449 10.8834 2.83947 10.9008 2.88331 10.9318C2.92722 10.9628 2.96563 11.0052 2.99862 11.059Z" fill="#111111"/>
<path d="M3.27839 11.5215L3.40119 11.6824L2.72404 12.181L2.60132 12.0201L3.27839 11.5215ZM3.68207 11.3476C3.70522 11.3779 3.71415 11.4096 3.70903 11.4426C3.70452 11.4758 3.68834 11.5028 3.66031 11.5234C3.6319 11.5443 3.60105 11.552 3.56775 11.5467C3.53476 11.5417 3.50673 11.5241 3.48359 11.4937C3.46137 11.4646 3.45228 11.4337 3.45641 11.4007C3.46076 11.3682 3.47718 11.3415 3.50559 11.3206C3.53362 11.3 3.56432 11.292 3.59769 11.2967C3.63175 11.3015 3.65993 11.3185 3.68207 11.3476Z" fill="#111111"/>
<path d="M3.85216 12.1201C3.9393 12.2079 3.9787 12.3038 3.97053 12.4076C3.96198 12.5111 3.90814 12.6103 3.80901 12.7053C3.74578 12.7658 3.67873 12.8081 3.60771 12.8322C3.53707 12.856 3.46765 12.8599 3.3993 12.8439C3.33065 12.8276 3.26764 12.7905 3.21021 12.7326C3.12308 12.6448 3.08344 12.5488 3.09131 12.4446C3.0991 12.3404 3.15301 12.2404 3.25291 12.1448C3.31652 12.0839 3.38342 12.0418 3.45367 12.0183C3.52462 11.9949 3.59427 11.9915 3.66261 12.0082C3.73166 12.025 3.79481 12.0622 3.85216 12.1201ZM3.74097 12.2265C3.65529 12.1402 3.54287 12.1635 3.40373 12.2968C3.33218 12.3653 3.28994 12.4266 3.27703 12.4807C3.26413 12.5348 3.27894 12.5833 3.32141 12.6261C3.36387 12.669 3.41305 12.6846 3.4688 12.6729C3.52454 12.6613 3.58785 12.6216 3.65872 12.5537C3.7299 12.4855 3.77182 12.4246 3.78435 12.3708C3.79725 12.3167 3.78282 12.2686 3.74097 12.2265Z" fill="#111111"/>
<path d="M4.66566 12.7955C4.72615 12.84 4.75952 12.8926 4.76586 12.9533C4.7725 13.0136 4.75143 13.0757 4.70271 13.1395L4.33538 13.621L4.17156 13.5004L4.5198 13.044C4.54989 13.0045 4.56394 12.9716 4.56188 12.9451C4.56028 12.919 4.54562 12.8958 4.51805 12.8755C4.49002 12.8549 4.4581 12.8447 4.42228 12.8452C4.38685 12.8459 4.34591 12.8547 4.29948 12.8715L3.94628 13.3345L3.78247 13.2139L4.28993 12.5487L4.43183 12.6532L4.37845 12.7493C4.48788 12.7197 4.58364 12.7351 4.66566 12.7955Z" fill="#111111"/>
<path d="M4.84722 13.6441C4.87991 13.6622 4.90106 13.6878 4.91076 13.7205C4.92061 13.7541 4.91641 13.7866 4.89823 13.8183C4.88823 13.8356 4.87517 13.8518 4.85891 13.8669C4.84272 13.8819 4.82003 13.9 4.79101 13.9211L4.58352 14.0738L4.47485 14.0135L4.6673 13.8095C4.6479 13.7712 4.64981 13.732 4.67303 13.6916C4.69074 13.6608 4.71633 13.6407 4.74978 13.6311C4.78338 13.6223 4.81591 13.6267 4.84722 13.6441Z" fill="#111111"/>
<path d="M6.0741 14.2221L6.09953 14.3668C6.06425 14.3769 6.02759 14.3813 5.98941 14.3799C5.95092 14.3779 5.9135 14.3707 5.87707 14.3583C5.79895 14.3302 5.7471 14.2877 5.72143 14.231C5.69578 14.1743 5.69783 14.1038 5.72755 14.0195L5.87379 13.6049L5.74862 13.5622L5.79673 13.4259L5.92182 13.4685L5.98307 13.2947L6.18453 13.3379L6.11526 13.5344L6.30152 13.5977L6.23325 13.7271L6.06715 13.6707L5.92274 14.0804C5.90914 14.119 5.90624 14.1491 5.91419 14.1708C5.92159 14.1924 5.94 14.2081 5.96925 14.218C5.99849 14.228 6.03347 14.2293 6.0741 14.2221Z" fill="#111111"/>
<path d="M6.86145 13.6997C6.9836 13.725 7.07073 13.7829 7.12282 13.8737C7.17442 13.9643 7.18596 14.0762 7.1574 14.2093C7.13922 14.2942 7.10754 14.3661 7.06225 14.425C7.01713 14.4833 6.96157 14.5246 6.89576 14.5487C6.82949 14.5727 6.75609 14.5764 6.67566 14.5597C6.55356 14.5344 6.4662 14.4764 6.41358 14.3856C6.36097 14.2947 6.34905 14.1822 6.37777 14.0482C6.39602 13.9628 6.42771 13.8912 6.47277 13.8332C6.51844 13.775 6.57433 13.7341 6.64063 13.7106C6.70745 13.6867 6.78108 13.683 6.86145 13.6997ZM6.82949 13.8489C6.70935 13.8241 6.62925 13.905 6.58921 14.0919C6.56861 14.188 6.56831 14.2619 6.58831 14.314C6.60823 14.366 6.64805 14.3982 6.70768 14.4105C6.76725 14.4228 6.81689 14.4089 6.8566 14.3687C6.89631 14.3285 6.92632 14.2609 6.94668 14.1658C6.96715 14.0702 6.96743 13.9967 6.94729 13.9451C6.92738 13.8931 6.88806 13.8611 6.82949 13.8489Z" fill="#111111"/>
<path d="M8.1522 13.726L8.19643 13.8887C8.14144 13.9049 8.05939 13.9108 7.9504 13.9064C8.00166 13.9319 8.03925 13.9621 8.06313 13.9969C8.08661 14.0318 8.09721 14.0749 8.09497 14.1262C8.09269 14.181 8.07718 14.2287 8.04862 14.2695C8.01956 14.3102 7.97862 14.3415 7.92591 14.3633C7.87321 14.3856 7.81213 14.3953 7.74263 14.3924C7.70459 14.3909 7.67129 14.3853 7.64285 14.3757C7.61886 14.3902 7.60631 14.4102 7.60525 14.4355C7.60364 14.4744 7.63677 14.4952 7.7047 14.498L7.83472 14.5032C7.89607 14.5057 7.94956 14.5178 7.99541 14.5396C8.0407 14.5614 8.07551 14.5908 8.09983 14.6276C8.12364 14.665 8.13458 14.7061 8.13274 14.751C8.12922 14.8346 8.09018 14.8984 8.01583 14.9423C7.94137 14.9857 7.83595 15.0046 7.69963 14.999C7.6018 14.995 7.52521 14.982 7.46977 14.9598C7.41489 14.9376 7.37651 14.9073 7.35476 14.8691C7.33306 14.8303 7.32336 14.7815 7.32581 14.7227L7.50909 14.7301C7.50787 14.7596 7.51244 14.7829 7.52293 14.8003C7.53336 14.8172 7.55316 14.8304 7.58216 14.8401C7.61122 14.8498 7.65333 14.8557 7.70855 14.8579C7.78664 14.8611 7.84208 14.8539 7.87477 14.8363C7.90751 14.8187 7.92463 14.7922 7.92608 14.7568C7.92737 14.7255 7.91621 14.7006 7.89267 14.6821C7.86858 14.6637 7.83321 14.6535 7.78653 14.6517L7.65886 14.6465C7.57876 14.6433 7.51908 14.6259 7.47976 14.5943C7.44054 14.5622 7.4218 14.5231 7.42381 14.4768C7.42504 14.4474 7.43508 14.4194 7.45399 14.3928C7.47284 14.3665 7.49811 14.3447 7.5299 14.3269C7.47976 14.2985 7.44333 14.2648 7.42058 14.226C7.39838 14.1867 7.38834 14.1404 7.39068 14.0871C7.39319 14.0274 7.41037 13.9754 7.44211 13.9314C7.4739 13.8878 7.51668 13.8549 7.57045 13.8325C7.62416 13.8098 7.68507 13.7997 7.75295 13.8025C7.84258 13.8082 7.91509 13.8047 7.97042 13.792C8.02631 13.7788 8.08689 13.7568 8.1522 13.726V13.726ZM7.75105 13.9394C7.70493 13.9375 7.66834 13.9505 7.64123 13.9783C7.61362 14.0062 7.59884 14.0442 7.59683 14.0925C7.59477 14.1423 7.60654 14.1825 7.63214 14.2129C7.65724 14.2434 7.69338 14.2596 7.74051 14.2615C7.78965 14.2635 7.82758 14.2505 7.85413 14.2226C7.88062 14.1953 7.89507 14.1552 7.8973 14.1025C7.90171 13.9979 7.8529 13.9436 7.75105 13.9394Z" fill="#111111"/>
<path d="M9.08833 14.153C9.08939 14.1634 9.09079 14.1906 9.09229 14.2345L8.56398 14.2882C8.57904 14.3678 8.6062 14.4229 8.64563 14.4535C8.68562 14.4845 8.7351 14.4971 8.79417 14.4911C8.83148 14.4872 8.86595 14.4775 8.89741 14.4617C8.92892 14.4465 8.96205 14.4246 8.9968 14.396L9.0928 14.5013C9.00729 14.5851 8.90723 14.6328 8.79272 14.6445C8.66454 14.6575 8.56152 14.6289 8.48377 14.5587C8.40607 14.4884 8.36005 14.3866 8.346 14.2532C8.33719 14.169 8.34405 14.0916 8.36669 14.0211C8.38945 13.9512 8.42704 13.8942 8.47958 13.8503C8.53157 13.8064 8.59621 13.7807 8.67341 13.7728C8.79149 13.7608 8.8867 13.7882 8.95893 13.855C9.03133 13.9223 9.07445 14.0216 9.08833 14.153ZM8.88107 14.1245L8.88006 14.1156C8.86478 13.9708 8.8027 13.904 8.69371 13.915C8.64379 13.9201 8.60653 13.9419 8.5821 13.9805C8.55812 14.0195 8.54758 14.0786 8.55025 14.1581L8.88107 14.1245Z" fill="#111111"/>
<path d="M9.82577 14.2512L9.92773 14.3586C9.90392 14.3861 9.87558 14.4095 9.8429 14.4288C9.8096 14.4478 9.77412 14.4619 9.73681 14.4712C9.65571 14.4896 9.58866 14.4819 9.53557 14.4482C9.48252 14.4146 9.44493 14.3545 9.42284 14.2679L9.31424 13.8423L9.18579 13.8739L9.15015 13.734L9.2786 13.7023L9.23309 13.524L9.42568 13.4519L9.47717 13.6535L9.66831 13.6064L9.68332 13.7514L9.51281 13.7934L9.62012 14.214C9.63016 14.2536 9.64461 14.2804 9.66341 14.2942C9.68165 14.3083 9.70574 14.3116 9.73575 14.3042C9.76576 14.2968 9.79576 14.2792 9.82577 14.2512Z" fill="#111111"/>
<path d="M10.2974 13.3563C10.3671 13.3303 10.43 13.3311 10.4863 13.3586C10.5424 13.3857 10.5847 13.4359 10.6131 13.5095L10.8308 14.0721L10.6394 14.1435L10.4331 13.6104C10.4152 13.5643 10.3944 13.535 10.3706 13.5225C10.3473 13.5099 10.3195 13.5096 10.2873 13.5217C10.2556 13.5335 10.23 13.5546 10.2107 13.5846C10.1919 13.6146 10.1772 13.6529 10.1664 13.6996L10.3763 14.2418L10.1849 14.3133L9.76416 13.226L9.94822 13.1356L10.1113 13.557C10.1457 13.4567 10.2078 13.3898 10.2974 13.3563Z" fill="#111111"/>
<path d="M11.5628 13.162C11.5682 13.1709 11.5808 13.1952 11.6008 13.2345L11.1426 13.4984C11.1898 13.5648 11.2378 13.6038 11.2866 13.6157C11.3361 13.6275 11.3864 13.6188 11.4377 13.5893C11.4701 13.5706 11.4972 13.5477 11.5193 13.5207C11.5416 13.4939 11.5625 13.4605 11.5821 13.4203L11.7138 13.477C11.6714 13.5882 11.6004 13.6723 11.501 13.7296C11.3899 13.7936 11.2841 13.8095 11.1836 13.7771C11.0832 13.7449 10.9985 13.6709 10.9295 13.5552C10.8859 13.4822 10.8595 13.4089 10.8504 13.3355C10.8417 13.2626 10.8519 13.1955 10.8812 13.1342C10.91 13.0731 10.9579 13.0233 11.0249 12.9848C11.1273 12.9258 11.2255 12.912 11.3195 12.9433C11.4137 12.9752 11.4948 13.048 11.5628 13.162ZM11.3621 13.2203L11.3574 13.2126C11.2825 13.0871 11.1979 13.0515 11.1033 13.1059C11.06 13.1309 11.0353 13.1659 11.0293 13.2109C11.024 13.2562 11.0393 13.3144 11.0752 13.3855L11.3621 13.2203Z" fill="#111111"/>
<path d="M11.8503 12.4134C11.8747 12.3946 11.8992 12.3805 11.9238 12.371L12.0188 12.5457C11.9944 12.5563 11.9726 12.569 11.9535 12.5838C11.9139 12.6142 11.8939 12.6521 11.8933 12.6975C11.8929 12.7421 11.9086 12.7982 11.9404 12.8655L12.2188 13.2144L12.0577 13.3384L11.5356 12.6842L11.6751 12.5768L11.7931 12.693C11.7714 12.6343 11.7656 12.5805 11.7756 12.5317C11.7859 12.4833 11.8108 12.4438 11.8503 12.4134Z" fill="#111111"/>
<path d="M12.3469 11.9246C12.3998 11.8716 12.4574 11.846 12.5194 11.8479C12.5811 11.8494 12.641 11.8781 12.699 11.9339L13.1363 12.3553L12.993 12.4988L12.5784 12.0995C12.5426 12.0649 12.5112 12.0469 12.4843 12.0454C12.4577 12.0435 12.4324 12.0547 12.4082 12.0788C12.3837 12.1034 12.3692 12.1332 12.3649 12.1681C12.361 12.2027 12.3644 12.2437 12.3753 12.2912L12.7958 12.6963L12.6525 12.8399L12.0483 12.2578L12.1725 12.1334L12.2625 12.1981C12.247 12.0876 12.2752 11.9964 12.3469 11.9246Z" fill="#111111"/>
<path d="M13.4136 11.2277C13.4223 11.2337 13.4441 11.2504 13.479 11.278L13.1753 11.7061C13.2465 11.747 13.3067 11.7627 13.3561 11.7533C13.4061 11.7438 13.4481 11.7151 13.482 11.6673C13.5035 11.6371 13.5184 11.6051 13.5269 11.5714C13.5358 11.538 13.5405 11.499 13.5412 11.4545L13.685 11.4518C13.6938 11.5702 13.6652 11.6758 13.5994 11.7686C13.5257 11.8725 13.4364 11.9304 13.3314 11.9424C13.2265 11.9544 13.1179 11.922 13.0061 11.8454C12.9353 11.7969 12.8802 11.7412 12.8407 11.6784C12.8016 11.6158 12.7822 11.5506 12.7827 11.4829C12.7828 11.4155 12.8051 11.3506 12.8495 11.288C12.9174 11.1924 13.0007 11.1394 13.0994 11.1293C13.1985 11.1194 13.3032 11.1522 13.4136 11.2277ZM13.2562 11.3633L13.2487 11.3581C13.1272 11.275 13.0351 11.2775 12.9725 11.3658C12.9438 11.4063 12.9363 11.4483 12.9499 11.4916C12.9644 11.5349 13.0031 11.5814 13.0661 11.6313L13.2562 11.3633Z" fill="#111111"/>
<path d="M13.2768 10.5638C13.3273 10.4633 13.402 10.3897 13.5007 10.3431L13.5724 10.4655C13.4994 10.5095 13.4476 10.5619 13.417 10.6227C13.3991 10.6584 13.3918 10.6897 13.3953 10.7165C13.3995 10.7429 13.4131 10.7617 13.4357 10.7727C13.453 10.7812 13.4695 10.7838 13.4851 10.7809C13.5012 10.7781 13.5199 10.768 13.5411 10.7505C13.5621 10.7335 13.5897 10.7062 13.6237 10.6689C13.6867 10.5988 13.7459 10.5531 13.8014 10.5317C13.8573 10.5105 13.9179 10.5156 13.9829 10.5472C14.0584 10.5838 14.1024 10.6427 14.1148 10.7238C14.1275 10.8044 14.1113 10.8894 14.0664 10.9787C14.0358 11.0395 13.9981 11.0904 13.9531 11.1314C13.9088 11.1722 13.8608 11.2028 13.8092 11.2233L13.7507 11.0832C13.8333 11.0426 13.8924 10.9871 13.9278 10.9165C13.9481 10.8763 13.956 10.8402 13.9518 10.808C13.9474 10.7764 13.9308 10.7537 13.9022 10.7398C13.8804 10.7292 13.8607 10.7249 13.8432 10.7271C13.826 10.7298 13.8066 10.7404 13.7849 10.7587C13.7634 10.7766 13.733 10.8066 13.6938 10.8488C13.6347 10.9146 13.5772 10.9562 13.5215 10.9736C13.4657 10.991 13.4097 10.9861 13.3533 10.9587C13.3114 10.9384 13.2797 10.908 13.2582 10.8676C13.2365 10.8276 13.2271 10.781 13.23 10.7279C13.2329 10.6749 13.2485 10.6202 13.2768 10.5638Z" fill="#111111"/>
<path d="M13.5743 9.83882C13.6105 9.73251 13.6744 9.64968 13.7657 9.59033L13.8536 9.70205C13.7872 9.75538 13.7432 9.81422 13.7212 9.87848C13.7083 9.91629 13.7055 9.9482 13.7127 9.97424C13.7205 9.99996 13.7365 10.0167 13.7605 10.0247C13.7787 10.0306 13.7955 10.0312 13.8106 10.0261C13.8262 10.0212 13.8433 10.0087 13.8619 9.98858C13.8804 9.96889 13.904 9.93827 13.9325 9.89671C13.9852 9.81896 14.0376 9.76575 14.0896 9.73708C14.1421 9.70863 14.2028 9.70573 14.2716 9.72832C14.3515 9.75454 14.403 9.80703 14.4266 9.88573C14.4503 9.96387 14.4459 10.0502 14.4137 10.1448C14.3918 10.2091 14.3614 10.2646 14.3226 10.3111C14.2843 10.3574 14.241 10.3942 14.1927 10.4214L14.1154 10.2903C14.1917 10.2392 14.2425 10.1763 14.268 10.1016C14.2825 10.0591 14.2854 10.0223 14.2768 9.99098C14.268 9.96019 14.2484 9.93989 14.2181 9.9299C14.1951 9.92232 14.175 9.92064 14.158 9.9251C14.1413 9.93012 14.1235 9.94318 14.1045 9.96426C14.0857 9.9849 14.0597 10.0186 14.0267 10.0656C13.9772 10.1387 13.926 10.1875 13.8732 10.2122C13.8203 10.2369 13.7641 10.2395 13.7044 10.2198C13.6602 10.2052 13.6246 10.1793 13.5977 10.1421C13.5706 10.1054 13.5548 10.0605 13.5505 10.0075C13.5461 9.95455 13.554 9.89833 13.5743 9.83882Z" fill="#111111"/>
<path d="M1.19238 8.01806C1.19238 7.75373 1.41049 7.53955 1.67945 7.53955C1.9485 7.53955 2.16653 7.75379 2.16653 8.01806C2.16653 8.28233 1.94842 8.49651 1.67945 8.49651C1.41041 8.49651 1.19238 8.28228 1.19238 8.01806Z" fill="#111111"/>
<path d="M13.834 8.01806C13.834 7.75373 14.0521 7.53955 14.3211 7.53955C14.5902 7.53955 14.8082 7.75379 14.8082 8.01806C14.8082 8.28233 14.5901 8.49651 14.3211 8.49651C14.0521 8.49651 13.834 8.28228 13.834 8.01806Z" fill="#111111"/>
</g>
</g>
<mask id="mask3_10_78" style="mask-type:luminance" maskUnits="userSpaceOnUse" x="4" y="4" width="8" height="8">
<path d="M11.2998 4.70007H4.7002V11.2998H11.2998V4.70007Z" fill="white"/>
</mask>
<g mask="url(#mask3_10_78)">
<mask id="mask4_10_78" style="mask-type:luminance" maskUnits="userSpaceOnUse" x="4" y="4" width="8" height="8">
<path d="M11.2998 4.70007H4.7002V11.2998H11.2998V4.70007Z" fill="white"/>
</mask>
<g mask="url(#mask4_10_78)">
<path d="M11.2998 7.99991C11.2998 9.82236 9.82233 11.2997 7.99993 11.2997C6.17746 11.2997 4.7002 9.82236 4.7002 7.99991C4.7002 6.17748 6.17752 4.70007 7.99993 4.70007C9.82233 4.70007 11.2998 6.17748 11.2998 7.99991ZM7.9808 4.9779C6.30263 4.9779 4.94208 6.33832 4.94208 8.01653C4.94208 9.6948 6.30263 11.0553 7.9808 11.0553C9.65902 11.0553 11.0195 9.6948 11.0195 8.01653C11.0195 6.33832 9.65902 4.9779 7.9808 4.9779Z" fill="#111111"/>
<path d="M10.8081 8.02492C10.8081 9.58193 9.54589 10.8442 7.98893 10.8442C6.43184 10.8442 5.16968 9.58193 5.16968 8.02492C5.16968 6.46785 6.43191 5.20569 7.98893 5.20569C9.54589 5.20569 10.8081 6.46793 10.8081 8.02492ZM6.06409 6.94446L5.46417 7.20003L5.7864 7.78887L5.31971 8.30001L5.87523 8.71103L5.66412 9.34437L6.3307 9.49982L6.40857 10.1666L7.08629 10.0443L7.40846 10.611L7.97504 10.2109L8.53053 10.611L8.86396 10.0331L9.53055 10.1887L9.60841 9.47746L10.2862 9.35553L10.075 8.69998L10.6305 8.30001L10.1861 7.79997L10.4973 7.18888L9.87503 6.92221L9.95278 6.24449L9.25278 6.23334L9.05282 5.57785L8.41959 5.84445L7.97521 5.35559L7.53084 5.85561L6.89755 5.57785L6.67533 6.23334L5.99758 6.2111L6.06409 6.94446Z" fill="#111111"/>
<path d="M9.78615 8.74417L9.93062 9.14414L9.50839 9.22195L8.80844 8.67757L8.71953 8.77752L9.33068 9.43296L9.30854 9.84425L8.8974 9.74413L8.47668 8.94619C8.43022 8.97162 8.38169 8.99388 8.33132 9.01245L8.65293 9.87744L8.43061 10.2108L8.13075 9.97739L8.04368 9.07403C8.01736 9.07615 7.9907 9.07749 7.96409 9.07749C7.93743 9.07749 7.91105 9.07615 7.88489 9.07425L7.84194 9.98849L7.50862 10.233L7.2975 9.8886L7.59685 9.01256C7.54811 8.99455 7.50109 8.97341 7.45591 8.94892L7.05297 9.74397L6.653 9.83293L6.60854 9.45521L7.22226 8.77691C7.18327 8.73915 7.14707 8.69843 7.11416 8.65515L6.41974 9.21063L6.01977 9.14403L6.13083 8.75515L6.97517 8.41073C6.95369 8.35774 6.93651 8.30275 6.92374 8.24591L6.05303 8.46623L5.74194 8.23297L5.98631 7.95515H6.89881C6.90104 7.9122 6.90606 7.86975 6.9132 7.82825L6.90857 7.82189L6.00855 7.62188L5.84192 7.32191L6.20857 7.14409L7.0117 7.53046C7.02988 7.49454 7.04991 7.45974 7.07194 7.42621L6.35302 6.89985L6.3197 6.511H6.71965L7.26403 7.16657C7.26403 7.16657 7.27848 7.17165 7.29834 7.17795C7.33124 7.15157 7.36566 7.12714 7.40158 7.10472C7.39377 7.07783 7.3863 7.05535 7.3863 7.05535L6.94187 6.36648L7.04193 5.9665L7.40855 6.11096L7.70093 6.97699C7.73747 6.96778 7.77478 6.96048 7.81282 6.95518L7.71956 6.05547L7.97513 5.77771L8.23076 6.04431L8.13282 6.95769C8.17732 6.96477 8.22055 6.97459 8.26305 6.98697L8.50853 6.13313L8.88625 5.94427L9.01961 6.35539L8.55287 7.07755L8.67513 7.18866L9.24177 6.52202H9.64186L9.60845 6.89985L8.88625 7.39977L8.89735 7.48874C8.89735 7.48874 8.8969 7.49024 8.89623 7.4927C8.90627 7.51088 8.91603 7.52934 8.92535 7.54814C9.04583 7.4937 9.7417 7.15542 9.7417 7.15542L10.1083 7.33318C10.1083 7.33318 9.97501 7.6554 9.94172 7.6554C9.91238 7.6554 9.1914 7.79211 9.01415 7.8258C9.02285 7.87516 9.02815 7.9257 9.02982 7.97712L9.95265 7.96652L10.2082 8.2555L9.88594 8.48871L9.00115 8.25935C8.98832 8.31279 8.9717 8.36483 8.95112 8.41469L9.78615 8.74417ZM7.98629 7.21091C7.90664 7.21091 7.84188 7.27562 7.84188 7.35538C7.84188 7.43514 7.90658 7.49989 7.98629 7.49989C8.06605 7.49989 8.13075 7.43525 8.13075 7.35538C8.13075 7.27562 8.06599 7.21091 7.98629 7.21091ZM8.44176 7.39977C8.36206 7.39977 8.29741 7.46448 8.29741 7.54424C8.29741 7.62405 8.362 7.68876 8.44176 7.68876C8.52158 7.68876 8.58628 7.62405 8.58628 7.54424C8.58628 7.46448 8.52158 7.39977 8.44176 7.39977ZM8.64178 7.8664C8.56207 7.8664 8.49743 7.93116 8.49743 8.01087C8.49743 8.09057 8.56202 8.15522 8.64178 8.15522C8.7216 8.15522 8.78635 8.09063 8.78635 8.01087C8.78635 7.93116 8.72165 7.8664 8.64178 7.8664ZM8.45286 8.33309C8.37321 8.33309 8.3084 8.39774 8.3084 8.4775C8.3084 8.55737 8.37316 8.62185 8.45286 8.62185C8.53268 8.62185 8.59738 8.55726 8.59738 8.4775C8.59738 8.39774 8.53268 8.33309 8.45286 8.33309ZM7.98629 8.54404C7.90664 8.54404 7.84188 8.60885 7.84188 8.68867C7.84188 8.76832 7.90658 8.83302 7.98629 8.83302C8.06605 8.83302 8.13075 8.76837 8.13075 8.68867C8.13075 8.60891 8.06599 8.54404 7.98629 8.54404ZM7.53076 8.33309C7.451 8.33309 7.38641 8.39774 7.38641 8.4775C7.38641 8.55737 7.451 8.62185 7.53076 8.62185C7.61058 8.62185 7.67522 8.55737 7.67522 8.4775C7.67522 8.39774 7.61058 8.33309 7.53076 8.33309ZM7.31964 7.8664C7.23988 7.8664 7.17529 7.93116 7.17529 8.01087C7.17529 8.09057 7.23988 8.15522 7.31964 8.15522C7.39946 8.15522 7.46411 8.09063 7.46411 8.01087C7.46411 7.93116 7.39946 7.8664 7.31964 7.8664ZM7.49746 7.39977C7.41764 7.39977 7.35305 7.46448 7.35305 7.54424C7.35305 7.62405 7.41764 7.68876 7.49746 7.68876C7.57728 7.68876 7.64181 7.62405 7.64181 7.54424C7.64181 7.46448 7.57728 7.39977 7.49746 7.39977ZM7.97513 7.82206C7.87077 7.82206 7.78638 7.90656 7.78638 8.01092C7.78638 8.11523 7.87083 8.19967 7.97513 8.19967C8.07949 8.19967 8.16394 8.11517 8.16394 8.01092C8.16394 7.90656 8.07949 7.82206 7.97513 7.82206Z" fill="#111111"/>
</g>
</g>
<path d="M1.48881 5.93165C1.50316 5.88576 1.52241 5.84651 1.54669 5.81397C1.57144 5.78159 1.60297 5.75349 1.64132 5.72974L1.71989 5.83718C1.69469 5.85536 1.67476 5.87407 1.6601 5.89332C1.64529 5.9131 1.63375 5.936 1.62558 5.9622C1.59274 6.06736 1.65605 6.14487 1.81558 6.19466C1.89653 6.21994 1.95915 6.22429 2.00337 6.20772C2.04744 6.19169 2.0773 6.15847 2.09295 6.10807C2.10067 6.0834 2.10372 6.05965 2.10219 6.03697C2.10074 6.01375 2.09555 5.98534 2.08654 5.95166L2.21751 5.90966C2.25065 5.9926 2.25409 6.07637 2.22774 6.16076C2.20689 6.22743 2.17398 6.28081 2.12892 6.3209C2.08387 6.36099 2.03002 6.38596 1.9674 6.39566C1.9044 6.40475 1.8359 6.39773 1.76182 6.37458C1.68774 6.35145 1.62642 6.31792 1.57785 6.27401C1.52936 6.22964 1.49728 6.17786 1.48163 6.11883C1.46597 6.05972 1.46834 5.99733 1.48881 5.93165Z" fill="#111111"/>
<path d="M1.79796 5.14406C1.80857 5.11932 1.82125 5.09832 1.83606 5.08105L1.9817 5.17652C1.96773 5.19469 1.9565 5.21355 1.9481 5.2331C1.93115 5.27259 1.93191 5.31009 1.95047 5.34559C1.96918 5.38065 2.00492 5.41738 2.05761 5.45579L2.41623 5.60983L2.34613 5.7731L1.6731 5.48397L1.73374 5.34284L1.87311 5.38408C1.83156 5.34712 1.80453 5.30787 1.79185 5.26648C1.77879 5.22486 1.78085 5.18407 1.79796 5.14406Z" fill="#111111"/>
<path d="M2.55743 4.5342C2.56552 4.53878 2.58575 4.55184 2.61821 4.5733L2.39056 4.97232C2.45494 5.00248 2.50809 5.01165 2.54994 4.99981C2.5921 4.98752 2.626 4.95895 2.65166 4.91398C2.66755 4.8861 2.67793 4.85693 2.6829 4.82638C2.68801 4.79652 2.68885 4.76216 2.68542 4.72329L2.80951 4.70923C2.82631 4.81233 2.80997 4.90726 2.76056 4.99401C2.7052 5.09107 2.63295 5.14873 2.54391 5.16698C2.45463 5.18569 2.35849 5.16576 2.25562 5.10703C2.19093 5.07015 2.13915 5.0257 2.10028 4.97377C2.06141 4.92184 2.03942 4.8664 2.03438 4.80752C2.02949 4.74818 2.04378 4.6893 2.07707 4.63088C2.12785 4.54191 2.19529 4.48899 2.27937 4.47203C2.36368 4.45577 2.45639 4.47654 2.55743 4.5342ZM2.43348 4.66532L2.42607 4.66112C2.31465 4.59758 2.2353 4.60713 2.18819 4.68976C2.16665 4.72749 2.1636 4.76475 2.17887 4.80149C2.19468 4.83852 2.23202 4.87648 2.29082 4.91543L2.43348 4.66532Z" fill="#111111"/>
<path d="M3.17659 4.02277C3.19965 4.04026 3.21904 4.04943 3.23462 4.05018C3.25066 4.05133 3.26754 4.0466 3.28533 4.03606L3.3562 4.13648C3.32833 4.16726 3.29984 4.18818 3.27067 4.19926C3.24157 4.21025 3.20919 4.2111 3.17353 4.20155C3.18781 4.24355 3.19094 4.28479 3.18285 4.32542C3.17475 4.36604 3.15673 4.40491 3.12862 4.44203C3.08487 4.49976 3.03332 4.53306 2.97398 4.542C2.9154 4.55078 2.85928 4.53489 2.80566 4.49426C2.74259 4.44646 2.71166 4.38666 2.71288 4.31488C2.71418 4.24378 2.74717 4.16558 2.81178 4.08028L2.86707 4.00727L2.8343 3.98245C2.79681 3.95404 2.76381 3.94266 2.73541 3.94846C2.70746 3.9545 2.67889 3.97672 2.64995 4.01506C2.6178 4.05752 2.58917 4.1167 2.56412 4.19246L2.44238 4.15283C2.47003 4.05889 2.50982 3.97771 2.56167 3.90929C2.67477 3.76007 2.79811 3.73601 2.93167 3.8372L3.17659 4.02277ZM3.05455 4.32649C3.09082 4.27868 3.09533 4.22301 3.06807 4.15962L2.94992 4.07012L2.90586 4.12823C2.83652 4.2198 2.8356 4.29113 2.90326 4.34237C2.93129 4.3636 2.95825 4.37299 2.98414 4.37055C3.01041 4.36841 3.03385 4.35375 3.05455 4.32649Z" fill="#111111"/>
<path d="M3.63944 3.59456L3.76406 3.62847C3.75956 3.66001 3.74948 3.69055 3.73398 3.72011C3.71878 3.74928 3.69969 3.77578 3.6767 3.79961C3.62569 3.851 3.57277 3.8762 3.51785 3.87506C3.46333 3.87422 3.40773 3.84657 3.35115 3.79197L3.07286 3.52384L2.99321 3.60655L2.90157 3.51827L2.98122 3.43557L2.86499 3.32353L2.97267 3.18164L3.10402 3.30818L3.22246 3.18523L3.30173 3.28634L3.19566 3.39646L3.47112 3.66184C3.49685 3.68658 3.51977 3.7001 3.53992 3.70232C3.5597 3.70415 3.57895 3.69537 3.59759 3.67597C3.61622 3.65657 3.63019 3.62946 3.63944 3.59456Z" fill="#111111"/>
<path d="M3.4113 3.00661L3.54319 2.88755L4.03408 3.43121L3.90219 3.55027L3.4113 3.00661ZM3.22779 2.67258C3.25238 2.65035 3.27926 2.64004 3.30851 2.64149C3.33806 2.6434 3.36289 2.65547 3.38297 2.67777C3.40344 2.70045 3.41291 2.72634 3.41146 2.75558C3.40962 2.78445 3.39641 2.80996 3.37182 2.8321C3.34761 2.85395 3.32111 2.86433 3.29224 2.86319C3.26299 2.86166 3.23817 2.8496 3.21771 2.82699C3.19762 2.80469 3.18815 2.7788 3.1893 2.74917C3.19083 2.71992 3.20366 2.69441 3.22779 2.67258Z" fill="#111111"/>
<path d="M4.13283 2.44514L4.2806 2.33838L4.51719 3.07113L4.34543 3.19523L3.72021 2.74329L3.87623 2.63057L4.34803 3.01721L4.13283 2.44514Z" fill="#111111"/>
<path d="M4.46623 2.22314L4.61844 2.1315L4.99638 2.75902L4.84411 2.85066L4.46623 2.22314ZM4.35001 1.86017C4.37833 1.84306 4.40675 1.8381 4.43515 1.84512C4.46379 1.85261 4.48586 1.86918 4.50137 1.89491C4.5171 1.92104 4.52145 1.9483 4.51442 1.97678C4.5071 2.00473 4.4893 2.02726 4.46089 2.04437C4.43294 2.06117 4.40491 2.06628 4.37681 2.05964C4.3484 2.05262 4.32633 2.03597 4.3106 2.00985C4.2951 1.98411 4.29074 1.95685 4.29754 1.92806C4.30456 1.89965 4.32206 1.87704 4.35001 1.86017Z" fill="#111111"/>
<path d="M5.48274 2.35364L5.58775 2.42901C5.57248 2.45696 5.55239 2.48209 5.52749 2.50431C5.50306 2.52638 5.47594 2.54456 5.44601 2.55884C5.38026 2.58923 5.32184 2.59427 5.2709 2.57396C5.22011 2.5541 5.17773 2.50874 5.14367 2.43788L4.97665 2.08941L4.8731 2.13905L4.81812 2.02434L4.92166 1.9747L4.85187 1.82915L5.00239 1.73376L5.0812 1.89818L5.23508 1.82441L5.27403 1.9469L5.13618 2.01296L5.30152 2.35791C5.31694 2.39007 5.33375 2.41076 5.35184 2.41985C5.36972 2.42848 5.39079 2.42695 5.41508 2.41535C5.43936 2.40373 5.46181 2.38312 5.48274 2.35364Z" fill="#111111"/>
<path d="M6.04679 1.52368L6.06825 2.2966C6.07054 2.3913 6.05191 2.47255 6.01227 2.54037C5.97249 2.60772 5.90475 2.66278 5.80906 2.70555L5.74919 2.59008C5.79211 2.56717 5.82495 2.54457 5.84778 2.52219C5.87061 2.49982 5.88658 2.47522 5.89566 2.44834C5.90483 2.42146 5.91033 2.38824 5.91216 2.34868L5.85443 2.36915L5.39087 1.75637L5.56782 1.6936L5.92323 2.21962L5.8742 1.58493L6.04679 1.52368Z" fill="#111111"/>
<path d="M6.44646 1.96289C6.47799 1.95464 6.50694 1.958 6.53329 1.97304C6.55971 1.98809 6.57697 2.01108 6.58508 2.04208C6.58949 2.05911 6.59133 2.07736 6.59055 2.09676C6.58982 2.11623 6.58675 2.14136 6.58146 2.17213L6.54627 2.39314L6.44195 2.42048L6.43637 2.17565C6.40094 2.16297 6.37811 2.13693 6.3678 2.09737C6.35993 2.06736 6.3636 2.03941 6.37872 2.01352C6.39384 1.98763 6.41644 1.97075 6.44646 1.96289Z" fill="#111111"/>
<path d="M7.42336 1.24839C7.47122 1.24358 7.51484 1.24595 7.55433 1.25549C7.59382 1.26557 7.63197 1.28352 7.66895 1.30948L7.6009 1.42396C7.57435 1.40792 7.54925 1.39693 7.52583 1.39097C7.50184 1.38509 7.47618 1.38348 7.44891 1.38623C7.33925 1.39731 7.29284 1.48589 7.30958 1.65215C7.31806 1.73653 7.33858 1.79587 7.37121 1.83001C7.40328 1.86422 7.44551 1.87865 7.49794 1.87339C7.52371 1.87079 7.54669 1.86429 7.56699 1.85399C7.58774 1.8436 7.61189 1.82764 7.63939 1.8061L7.72941 1.91011C7.6661 1.9732 7.59041 2.00909 7.5024 2.01803C7.4329 2.02505 7.37088 2.01566 7.31627 1.98992C7.26167 1.96418 7.21771 1.92447 7.18414 1.87071C7.15112 1.81634 7.1307 1.75051 7.123 1.6733C7.1152 1.59609 7.122 1.52652 7.14331 1.46459C7.16517 1.40258 7.20014 1.35278 7.24839 1.31521C7.29658 1.27764 7.35492 1.25534 7.42336 1.24839Z" fill="#111111"/>
<path d="M8.21437 1.23083C8.32202 1.2332 8.40524 1.26947 8.4642 1.33958C8.52315 1.40923 8.55132 1.504 8.54865 1.62397C8.54697 1.70049 8.53147 1.76792 8.50224 1.82627C8.47351 1.88408 8.43296 1.92845 8.38048 1.95938C8.32805 1.99084 8.26641 2.00573 8.19563 2.00421C8.08754 2.00176 8.0037 1.96549 7.94419 1.89538C7.88523 1.82528 7.85707 1.72967 7.8598 1.60862C7.86153 1.5321 7.8767 1.46513 7.90543 1.40785C7.93465 1.35058 7.97576 1.30621 8.02869 1.27482C8.08112 1.24389 8.14298 1.22923 8.21437 1.23083ZM8.21136 1.36501C8.10533 1.36264 8.05045 1.44527 8.04676 1.61282C8.04487 1.69973 8.0563 1.76388 8.08129 1.80527C8.10672 1.84719 8.14582 1.86881 8.19859 1.86995C8.25135 1.8711 8.29112 1.85109 8.3179 1.80977C8.34512 1.76899 8.35978 1.70569 8.36174 1.61985C8.36363 1.53401 8.35186 1.47032 8.32637 1.42885C8.30139 1.38739 8.26307 1.36616 8.21136 1.36501Z" fill="#111111"/>
<path d="M8.91266 2.06121C8.85722 2.05403 8.81572 2.03196 8.78822 1.99499C8.76061 1.95856 8.75068 1.91061 8.75838 1.85104L8.86871 1L9.04742 1.00359L8.93525 1.86853C8.93079 1.90236 8.94228 1.92107 8.96944 1.92459C8.98327 1.92642 8.9975 1.92588 9.01189 1.92306L9.03275 2.05173C8.9942 2.06342 8.95416 2.06655 8.91266 2.06121Z" fill="#111111"/>
<path d="M9.36237 2.14672C9.30765 2.13541 9.26794 2.11029 9.24323 2.07134C9.21841 2.03293 9.21211 1.98436 9.22427 1.92563L9.39829 1.08521L9.57627 1.10224L9.39941 1.95633C9.39243 1.98978 9.40242 2.00926 9.42925 2.01483C9.44291 2.01766 9.45702 2.01819 9.47169 2.01643L9.48285 2.14633C9.44352 2.15512 9.40337 2.15519 9.36237 2.14672Z" fill="#111111"/>
<path d="M10.2083 2.17663C10.1995 2.20428 10.1974 2.22551 10.2019 2.24055C10.2062 2.25605 10.2163 2.27034 10.2322 2.28355L10.1613 2.38397C10.1229 2.36801 10.0937 2.34815 10.0735 2.3244C10.0533 2.30065 10.0418 2.27041 10.0388 2.2336C10.0041 2.2611 9.96621 2.2779 9.92521 2.28393C9.88421 2.28996 9.8416 2.28592 9.79715 2.27179C9.7281 2.24987 9.67946 2.21253 9.65118 2.1596C9.62324 2.10737 9.6195 2.04918 9.6398 1.98503C9.66373 1.90957 9.70969 1.8604 9.77779 1.83748C9.84523 1.81488 9.92995 1.81977 10.032 1.85215L10.1193 1.87979L10.1317 1.84062C10.1459 1.79571 10.1456 1.76089 10.1306 1.73607C10.1156 1.71178 10.0851 1.69231 10.0392 1.6778C9.98846 1.66168 9.92315 1.65458 9.84333 1.65634L9.83998 1.52835C9.9377 1.523 10.0276 1.53331 10.1094 1.5592C10.2879 1.61579 10.3518 1.724 10.3011 1.88376L10.2083 2.17663ZM9.8812 2.16335C9.93843 2.18152 9.99231 2.16708 10.0431 2.1202L10.0879 1.97892L10.0183 1.95684C9.90887 1.9221 9.84127 1.94524 9.81561 2.02611C9.80501 2.05964 9.80518 2.0882 9.81617 2.11172C9.82699 2.13578 9.84868 2.15296 9.8812 2.16335Z" fill="#111111"/>
<path d="M11.0374 1.93442C11.1143 1.97023 11.1603 2.02904 11.1754 2.11067C11.1904 2.19239 11.1722 2.28838 11.1208 2.39865C11.0887 2.46762 11.0496 2.52352 11.0033 2.56644C10.9576 2.60959 10.9081 2.63677 10.8549 2.64799C10.8015 2.65968 10.7481 2.65304 10.6947 2.62814C10.6585 2.61134 10.6292 2.58851 10.6067 2.55979C10.5842 2.531 10.5683 2.4977 10.5591 2.45975L10.5178 2.52267L10.3757 2.45654L10.8088 1.52661L10.978 1.58404L10.811 1.94274C10.8465 1.92281 10.8838 1.91189 10.9228 1.91013C10.9617 1.90883 10.9999 1.91693 11.0374 1.93442ZM10.7064 2.48724C10.7499 2.50755 10.7927 2.50465 10.8346 2.47846C10.8762 2.4528 10.9156 2.40003 10.9527 2.32038C10.9916 2.23691 11.0079 2.17261 11.0015 2.12732C10.9947 2.08188 10.9709 2.04973 10.93 2.03079C10.879 2.00697 10.8211 2.01659 10.7566 2.05951L10.6197 2.3536C10.6226 2.38407 10.6314 2.41102 10.6463 2.4344C10.6615 2.45807 10.6816 2.47563 10.7064 2.48724Z" fill="#111111"/>
<path d="M11.7962 2.37484C11.8863 2.43364 11.938 2.50833 11.951 2.59905C11.9644 2.68932 11.9384 2.7847 11.8728 2.88528C11.831 2.94943 11.7822 2.99853 11.7266 3.03267C11.6717 3.06665 11.6138 3.08292 11.553 3.08154C11.4919 3.08055 11.4316 3.06077 11.3722 3.02198C11.2816 2.96294 11.2297 2.88787 11.2162 2.79692C11.203 2.7062 11.2296 2.6102 11.2956 2.50878C11.3375 2.44464 11.3857 2.39584 11.4403 2.36231C11.4954 2.32902 11.5537 2.31305 11.6152 2.31427C11.6761 2.31565 11.7364 2.33589 11.7962 2.37484ZM11.7228 2.48733C11.634 2.42936 11.5438 2.4706 11.4523 2.61096C11.4047 2.68375 11.3807 2.7443 11.3801 2.79272C11.3796 2.84182 11.4014 2.88077 11.4456 2.90956C11.4899 2.93836 11.5342 2.94233 11.5787 2.92132C11.6234 2.90109 11.6692 2.85496 11.7162 2.7831C11.7631 2.71116 11.7867 2.6509 11.7869 2.60226C11.7876 2.55392 11.7662 2.51558 11.7228 2.48733Z" fill="#111111"/>
<path d="M12.5864 2.97601C12.6071 2.99327 12.6236 3.01137 12.636 3.03046L12.5029 3.14279C12.4895 3.12416 12.4747 3.10804 12.4584 3.09445C12.4254 3.06696 12.3893 3.05696 12.3499 3.06459C12.311 3.07254 12.2655 3.09629 12.2136 3.13584L11.9636 3.43551L11.8271 3.32173L12.2964 2.75928L12.4144 2.85771L12.3351 2.97945C12.3824 2.9502 12.4277 2.93545 12.471 2.93523C12.5147 2.93462 12.5532 2.94821 12.5864 2.97601Z" fill="#111111"/>
<path d="M12.7753 3.96652C12.7544 3.98653 12.7422 4.00417 12.7389 4.01945C12.7353 4.0351 12.7373 4.05251 12.7449 4.07176L12.6344 4.12568C12.6084 4.09322 12.5924 4.06176 12.5861 4.03121C12.5798 4.00066 12.5842 3.96859 12.5993 3.93491C12.5557 3.94232 12.5144 3.9388 12.4756 3.92437C12.4368 3.90994 12.4013 3.88588 12.3691 3.85212C12.3191 3.79974 12.2945 3.74353 12.2952 3.68358C12.2958 3.62432 12.3206 3.57147 12.3691 3.52504C12.4264 3.47044 12.4904 3.44944 12.5611 3.46204C12.6311 3.47464 12.703 3.51969 12.7768 3.59721L12.8401 3.66342L12.8698 3.63501C12.9039 3.60248 12.9203 3.57178 12.9192 3.54291C12.9176 3.51435 12.9003 3.48266 12.8671 3.44784C12.8303 3.40927 12.7765 3.37162 12.7056 3.33481L12.7643 3.22095C12.8526 3.26325 12.9264 3.31549 12.9856 3.37765C13.1149 3.51313 13.1189 3.63876 12.9976 3.75438L12.7753 3.96652ZM12.495 3.79745C12.5364 3.8409 12.5906 3.85419 12.6576 3.83754L12.7648 3.7352L12.7145 3.68243C12.6353 3.59935 12.5649 3.58705 12.5035 3.64563C12.4781 3.66991 12.4645 3.69503 12.4628 3.721C12.4607 3.74727 12.4714 3.77278 12.495 3.79745Z" fill="#111111"/>
<path d="M13.1243 4.49234L13.0709 4.60994C13.0405 4.60039 13.012 4.58566 12.9853 4.56557C12.959 4.54594 12.9358 4.52281 12.9159 4.49631C12.8732 4.43773 12.8569 4.38145 12.8668 4.32746C12.8764 4.27377 12.9126 4.22329 12.9755 4.17617L13.2847 3.94432L13.2157 3.85245L13.3176 3.77608L13.3864 3.86795L13.5156 3.77112L13.6384 3.9001L13.4926 4.00954L13.595 4.14608L13.4825 4.20817L13.3908 4.08583L13.0847 4.31539C13.0562 4.33677 13.0392 4.35732 13.0339 4.37687C13.0289 4.39611 13.0345 4.4165 13.0506 4.43796C13.0667 4.45949 13.0913 4.47759 13.1243 4.49234Z" fill="#111111"/>
<path d="M13.741 4.36089L13.8375 4.51011L13.2224 4.90791L13.126 4.75868L13.741 4.36089ZM14.1001 4.23312C14.118 4.26092 14.1239 4.2891 14.1179 4.31774C14.1113 4.3466 14.0954 4.36921 14.0702 4.38547C14.0445 4.40205 14.0174 4.40724 13.9888 4.40113C13.9607 4.39472 13.9376 4.37761 13.9196 4.34981C13.9019 4.32247 13.8959 4.2946 13.9016 4.26627C13.9077 4.23763 13.9236 4.21503 13.9492 4.19853C13.9745 4.18226 14.0016 4.17699 14.0306 4.18287C14.0593 4.18898 14.0824 4.20578 14.1001 4.23312Z" fill="#111111"/>
<path d="M14.1507 5.05806C14.1991 5.15421 14.2061 5.24479 14.1717 5.32971C14.1379 5.41447 14.0674 5.48374 13.9602 5.53773C13.8918 5.5721 13.825 5.59004 13.7597 5.59157C13.6952 5.59333 13.637 5.57828 13.5851 5.54651C13.5327 5.5149 13.4906 5.46747 13.4588 5.40417C13.4103 5.30756 13.403 5.21653 13.4371 5.13108C13.4713 5.04608 13.5426 4.97643 13.6508 4.92206C13.7192 4.88769 13.7854 4.86974 13.8494 4.86822C13.9138 4.86715 13.9722 4.88265 14.0248 4.91465C14.0766 4.94649 14.1186 4.99422 14.1507 5.05806ZM14.0308 5.11832C13.9831 5.02355 13.8844 5.01385 13.7347 5.08915C13.657 5.12817 13.6058 5.16842 13.5809 5.20988C13.5557 5.25204 13.5551 5.29672 13.5787 5.34384C13.6024 5.39095 13.6388 5.41669 13.6879 5.42097C13.7367 5.42593 13.7994 5.40913 13.8762 5.37064C13.9529 5.33207 14.0036 5.29183 14.0283 5.2499C14.0532 5.20843 14.054 5.1646 14.0308 5.11832Z" fill="#111111"/>
<path d="M14.5373 6.00844C14.559 6.07045 14.5574 6.12497 14.5327 6.17194C14.5077 6.21959 14.462 6.25495 14.3955 6.27817L13.8952 6.45282L13.8368 6.2858L14.3116 6.12009C14.3521 6.10596 14.3781 6.08862 14.3896 6.06816C14.4013 6.04822 14.4022 6.02432 14.3925 5.99644C14.3825 5.96766 14.3647 5.94482 14.339 5.92802C14.3128 5.91092 14.2787 5.89755 14.2371 5.888L13.7566 6.05579L13.698 5.888L14.3896 5.64661L14.4402 5.79163L14.3547 5.8363C14.4472 5.86754 14.5081 5.92497 14.5373 6.00844Z" fill="#111111"/>
</g>
</svg>
