<?xml version="1.0" standalone="no"?>
<!DOCTYPE svg PUBLIC "-//W3C//DTD SVG 20010904//EN"
 "http://www.w3.org/TR/2001/REC-SVG-20010904/DTD/svg10.dtd">
<svg version="1.0" xmlns="http://www.w3.org/2000/svg"
 width="1024.000000pt" height="1024.000000pt" viewBox="0 0 1024.000000 1024.000000"
 preserveAspectRatio="xMidYMid meet">

<g transform="translate(0.000000,1024.000000) scale(0.100000,-0.100000)"
fill="#000000" stroke="none">
<path d="M4915 8353 c-516 -41 -952 -165 -1359 -388 -827 -454 -1400 -1224
-1610 -2165 -37 -168 -54 -292 -67 -503 -39 -604 111 -1246 416 -1783 150
-263 301 -461 530 -689 270 -270 526 -455 860 -620 510 -252 1040 -364 1593
-334 828 43 1563 370 2146 953 385 385 670 872 820 1401 135 477 160 1003 71
1486 -26 139 -91 380 -140 516 -111 308 -342 713 -550 963 -568 681 -1376
1094 -2270 1160 -129 9 -345 11 -440 3z m591 -157 c698 -91 1302 -381 1792
-860 265 -259 456 -526 621 -866 154 -320 237 -595 288 -960 24 -176 24 -605
0 -780 -84 -599 -299 -1109 -658 -1560 -107 -135 -344 -372 -479 -479 -478
-381 -1015 -601 -1640 -672 -165 -19 -525 -17 -680 5 -717 98 -1340 405 -1840
908 -822 826 -1110 2055 -741 3158 269 803 811 1431 1557 1804 354 177 698
273 1129 316 129 12 509 4 651 -14z"/>
<path d="M5010 7853 c0 -10 -7 -133 -15 -273 -8 -140 -15 -285 -15 -322 l0
-68 69 0 68 0 6 68 c4 37 7 87 7 111 0 31 7 51 25 72 l24 29 37 -57 c20 -32
63 -99 96 -149 l59 -92 80 -7 c44 -4 82 -5 84 -3 2 2 -54 92 -125 198 -72 107
-129 198 -127 202 1 4 62 67 135 141 72 73 132 136 132 139 0 4 -36 8 -81 10
l-81 3 -124 -127 -124 -127 6 135 7 134 -71 0 c-62 0 -72 -2 -72 -17z"/>
<path d="M4512 7817 c-32 -6 -51 -14 -49 -21 3 -7 35 -155 73 -331 37 -176 68
-321 68 -321 1 -2 141 18 144 21 1 1 -25 127 -58 281 -34 153 -66 303 -72 332
-12 58 -11 58 -106 39z"/>
<path d="M5947 7675 c-87 -33 -171 -120 -209 -215 -17 -43 -22 -76 -23 -150 0
-87 2 -100 30 -149 35 -64 91 -114 165 -150 48 -23 68 -26 155 -26 92 0 104 2
153 29 95 53 163 148 187 263 33 160 -34 299 -181 373 -57 30 -77 34 -152 37
-58 2 -100 -2 -125 -12z m208 -134 c47 -22 89 -64 104 -104 38 -99 -28 -256
-130 -307 -131 -67 -298 50 -275 193 29 176 170 279 301 218z"/>
<path d="M3895 7578 c-48 -15 -285 -131 -285 -138 0 -7 288 -602 294 -608 2
-1 61 28 131 65 195 104 265 178 281 299 17 134 -81 314 -201 370 -54 26 -162
32 -220 12z m160 -140 c55 -36 110 -135 115 -203 6 -92 -22 -133 -126 -189
l-65 -34 -94 189 c-52 104 -95 191 -95 194 0 8 107 56 145 65 40 11 83 3 120
-22z"/>
<path d="M6665 7118 c-82 -99 -180 -216 -217 -259 -38 -43 -68 -80 -68 -83 0
-2 24 -24 54 -49 l53 -46 93 110 92 109 81 -71 81 -72 38 42 37 43 -79 70
c-44 39 -80 74 -80 77 0 3 21 32 46 63 l47 57 27 -22 c16 -12 59 -50 98 -84
l69 -63 42 49 c22 27 37 51 32 53 -5 2 -73 60 -150 131 -77 70 -141 127 -143
126 -2 0 -70 -82 -153 -181z"/>
<path d="M3232 7162 l-53 -47 226 -260 c124 -143 229 -261 233 -262 4 -1 30
19 59 45 l52 47 -220 250 c-121 138 -226 255 -232 262 -9 10 -24 2 -65 -35z"/>
<path d="M2941 6779 c-113 -36 -201 -150 -201 -258 1 -71 59 -156 123 -180 73
-28 141 -6 259 83 88 66 126 78 157 47 62 -62 -13 -179 -129 -199 -39 -7 -42
-10 -64 -64 l-23 -56 21 -6 c119 -32 259 43 326 175 60 116 -1 267 -119 299
-69 18 -115 2 -244 -87 -55 -37 -88 -53 -111 -53 -40 0 -66 26 -66 65 0 37 69
104 130 126 39 14 46 21 54 53 9 34 8 40 -15 57 -29 22 -20 22 -98 -2z"/>
<path d="M7305 6766 c-17 -12 -143 -101 -282 -196 l-252 -173 42 -56 c23 -31
42 -57 43 -59 2 -3 113 74 180 125 l32 24 66 -86 c37 -47 69 -85 71 -85 2 0
24 13 48 28 l45 28 -64 89 c-35 49 -61 91 -59 95 7 11 145 103 149 99 2 -2 33
-50 70 -107 l66 -103 46 33 c25 18 47 35 50 39 3 5 -192 298 -214 321 -4 4
-21 -3 -37 -16z"/>
<path d="M5075 6711 c-117 -53 -205 -239 -221 -466 l-7 -93 -57 77 c-151 203
-384 333 -483 268 -44 -28 -60 -72 -65 -177 -7 -145 19 -238 126 -453 2 -5
-18 3 -44 16 -27 14 -87 37 -134 53 -75 24 -100 28 -220 28 -118 1 -140 -2
-175 -20 -80 -41 -94 -129 -39 -243 35 -71 185 -223 271 -272 l63 -36 -88 -7
c-172 -12 -321 -67 -411 -151 -81 -76 -89 -142 -28 -212 87 -99 269 -166 477
-176 42 -2 50 -5 35 -11 -11 -5 -53 -32 -93 -59 -140 -96 -248 -242 -259 -350
-8 -76 13 -112 83 -144 47 -21 69 -25 157 -25 141 1 211 20 401 110 5 3 -4
-15 -18 -39 -130 -209 -152 -478 -48 -572 51 -46 146 -36 252 26 65 38 224
192 268 261 l32 49 0 -46 c0 -203 85 -430 191 -507 72 -52 131 -39 208 45 80
86 129 230 140 404 l6 104 39 -59 c83 -125 230 -252 337 -289 23 -8 65 -15 94
-15 99 0 140 71 140 235 -1 125 -52 282 -127 388 -24 33 -22 33 35 2 166 -93
417 -127 525 -71 88 46 102 130 43 251 -41 84 -151 198 -254 266 l-68 44 88 6
c162 12 316 68 405 148 115 103 71 219 -117 312 -98 47 -173 67 -287 76 l-86
6 75 49 c202 132 325 338 268 448 -26 50 -85 73 -200 78 -118 5 -231 -18 -357
-73 -44 -19 -78 -31 -76 -27 2 4 22 43 45 87 66 129 88 212 88 335 0 125 -23
187 -78 213 -105 49 -338 -91 -484 -290 l-48 -65 -6 99 c-16 237 -101 417
-221 468 -46 19 -44 19 -93 -4z m99 -261 c79 -175 75 -423 -10 -659 -20 -55
-40 -101 -43 -101 -9 0 -75 208 -93 290 -7 30 -12 111 -13 180 0 103 4 138 24
200 37 120 73 179 96 160 7 -6 24 -37 39 -70z m-715 -139 c61 -32 145 -106
196 -173 58 -78 127 -220 155 -320 24 -90 38 -208 23 -208 -5 0 -43 28 -84 63
-165 141 -300 349 -335 517 -13 66 -13 140 2 140 3 0 22 -9 43 -19z m1376 -81
c-24 -189 -190 -444 -386 -593 -20 -15 -39 -27 -43 -27 -11 0 4 118 25 198 56
213 181 395 334 487 l59 35 9 -22 c5 -13 5 -48 2 -78z m-1757 -436 c187 -39
400 -172 518 -326 25 -32 44 -61 42 -64 -3 -2 -42 1 -89 6 -225 27 -492 163
-594 302 -51 68 -55 85 -22 91 43 8 69 7 145 -9z m2258 3 c8 -8 -44 -87 -90
-135 -114 -121 -349 -230 -544 -252 -105 -12 -102 -12 -102 -2 0 4 27 38 59
75 134 155 321 270 507 311 64 14 157 16 170 3z m-1280 -272 c58 -38 135 -16
174 48 l20 32 0 -28 c0 -100 99 -166 184 -122 38 20 41 19 23 -8 -57 -87 2
-197 106 -197 l38 0 -40 -38 c-66 -62 -68 -136 -6 -191 42 -36 43 -41 10 -41
-35 0 -79 -24 -104 -56 -27 -34 -27 -89 -1 -131 22 -37 20 -40 -15 -17 -14 9
-43 16 -66 16 -70 -1 -113 -44 -127 -123 l-8 -44 -18 31 c-23 39 -65 64 -106
64 -41 0 -69 -15 -102 -54 l-27 -31 -1 28 c0 67 -63 137 -122 137 -13 0 -40
-9 -61 -19 -40 -20 -45 -17 -22 13 22 29 19 98 -6 130 -25 32 -69 56 -104 56
-14 0 -25 2 -25 4 0 2 18 22 40 44 36 35 40 45 40 88 0 43 -4 51 -45 91 -43
41 -44 43 -20 43 39 0 89 24 113 55 26 33 29 96 8 138 -17 30 -12 33 24 12 78
-44 180 24 180 122 l0 28 21 -32 c11 -17 31 -39 45 -48z m-726 -328 c52 -14
126 -38 164 -55 l69 -29 -79 -31 c-154 -58 -204 -67 -384 -66 -180 0 -239 12
-335 69 -54 31 -50 42 25 80 136 69 348 81 540 32z m2009 8 c73 -18 183 -73
178 -89 -5 -20 -131 -76 -207 -92 -114 -24 -327 -15 -440 19 -107 32 -185 67
-174 77 28 25 213 83 322 100 75 12 240 4 321 -15z m-1720 -407 c-99 -141
-297 -288 -463 -342 -66 -22 -184 -37 -224 -28 l-34 7 42 62 c48 73 97 117
197 180 133 82 324 143 476 152 l28 1 -22 -32z m1211 -3 c144 -39 300 -119
388 -200 72 -66 131 -149 117 -163 -4 -4 -40 -6 -80 -5 -130 3 -296 71 -435
178 -61 47 -210 202 -210 218 0 15 112 0 220 -28z m-1005 -308 c-34 -170 -112
-322 -226 -442 -65 -68 -177 -143 -193 -128 -3 3 -6 25 -6 47 1 184 167 456
385 629 l50 40 3 -33 c2 -17 -4 -69 -13 -113z m665 77 c142 -115 282 -315 324
-465 14 -52 20 -105 17 -161 -1 -25 -3 -27 -27 -18 -14 6 -47 25 -72 42 -167
114 -302 363 -327 603 -9 78 -13 79 85 -1z m-332 -111 c59 -167 66 -206 66
-378 0 -152 -1 -164 -28 -235 -29 -76 -60 -130 -76 -130 -5 0 -24 31 -43 69
-67 134 -83 331 -42 511 20 84 76 250 85 250 4 0 21 -39 38 -87z"/>
<path d="M5005 5356 c-97 -46 -145 -125 -145 -241 0 -110 51 -193 146 -241 57
-28 184 -26 239 3 129 68 177 228 109 360 -65 128 -219 180 -349 119z"/>
<path d="M3244 3563 c-126 -129 -230 -239 -232 -243 -5 -13 231 -210 284 -236
34 -16 78 -28 118 -31 54 -5 72 -2 120 20 78 36 159 116 199 196 26 54 32 77
32 131 -1 111 -48 183 -226 341 l-66 59 -229 -237z m353 -57 c49 -70 33 -157
-46 -239 -47 -51 -100 -77 -153 -77 -48 0 -81 18 -148 78 l-45 40 55 59 c30
32 95 99 144 150 l89 92 39 -32 c21 -18 50 -50 65 -71z"/>
<path d="M6530 3617 c-14 -12 -38 -32 -53 -44 l-28 -21 243 -247 242 -246 147
147 147 147 -51 43 -52 43 -90 -89 -90 -90 -190 190 c-104 105 -192 190 -195
190 -3 0 -16 -11 -30 -23z"/>
<path d="M6102 3324 c-60 -38 -71 -49 -67 -67 2 -12 28 -166 56 -342 28 -176
52 -325 54 -332 2 -7 26 0 65 20 l61 32 -6 49 c-3 27 -9 61 -12 76 -5 30 -6
29 174 131 l42 24 60 -59 59 -58 65 39 65 39 -236 216 c-131 120 -251 231
-269 248 -18 16 -33 30 -35 29 -2 0 -36 -21 -76 -45z m178 -229 c52 -52 91
-97 87 -101 -15 -15 -131 -83 -135 -79 -8 7 -58 275 -52 275 3 0 48 -43 100
-95z"/>
<path d="M3900 3112 c-74 -136 -147 -270 -163 -299 l-28 -52 60 -40 60 -41 89
163 c163 296 244 448 241 451 -2 2 -31 17 -65 34 l-61 31 -133 -247z"/>
<path d="M5590 3129 c-113 -27 -213 -49 -222 -49 -10 0 -18 -3 -18 -6 0 -5 19
-91 25 -110 2 -8 28 -6 85 8 45 10 83 18 85 16 1 -2 29 -127 61 -278 32 -151
58 -276 58 -277 1 -1 31 6 69 15 41 10 67 21 67 29 0 8 -25 131 -55 275 -30
144 -54 263 -52 264 1 1 37 11 80 22 43 11 81 23 84 25 2 3 -3 30 -13 61 -12
38 -23 56 -33 55 -9 0 -108 -23 -221 -50z"/>
<path d="M4413 3139 c-142 -55 -244 -227 -230 -392 15 -180 143 -290 337 -292
74 0 93 4 142 28 86 42 154 137 173 237 l6 35 -146 39 c-80 21 -147 37 -149
35 -4 -5 -36 -101 -36 -109 0 -4 36 -15 80 -25 44 -10 80 -21 80 -25 0 -9 -62
-66 -87 -79 -32 -17 -103 -13 -148 8 -111 50 -135 165 -64 309 50 103 139 144
234 108 52 -20 105 -76 105 -111 0 -24 2 -25 75 -25 69 0 75 2 75 20 0 28 -25
87 -57 132 -72 105 -260 157 -390 107z"/>
<path d="M5060 2735 l0 -335 70 0 70 0 0 335 0 335 -70 0 -70 0 0 -335z"/>
</g>
</svg>
