<svg width="16" height="17" viewBox="0 0 16 17" fill="none" xmlns="http://www.w3.org/2000/svg">
<path d="M7.49461 0.587988C6.22336 0.688998 5.14921 0.994491 4.14651 1.54389C2.10907 2.66238 0.697395 4.55939 0.180028 6.87769C0.0888727 7.29158 0.0469907 7.59708 0.0149632 8.11691C-0.0811192 9.60495 0.288428 11.1866 1.03984 12.5096C1.40939 13.1575 1.7814 13.6453 2.34558 14.2071C3.01076 14.8722 3.64146 15.328 4.46432 15.7345C5.72078 16.3554 7.02651 16.6313 8.38891 16.5574C10.4288 16.4514 12.2396 15.6458 13.6759 14.2095C14.6244 13.261 15.3266 12.0612 15.6961 10.7579C16.0287 9.58278 16.0903 8.2869 15.871 7.09695C15.807 6.75451 15.6468 6.16077 15.5261 5.82571C15.2526 5.06691 14.6835 4.06913 14.1711 3.45321C12.7717 1.77547 10.7811 0.75798 8.57861 0.595379C8.2608 0.573207 7.72865 0.568279 7.49461 0.587988ZM8.95063 0.974782C10.6703 1.19897 12.1583 1.91343 13.3655 3.09352C14.0184 3.73161 14.4889 4.3894 14.8954 5.22704C15.2748 6.01541 15.4793 6.69292 15.6049 7.59215C15.6641 8.02575 15.6641 9.08266 15.6049 9.5138C15.398 10.9895 14.8683 12.246 13.9839 13.3571C13.7203 13.6897 13.1364 14.2736 12.8038 14.5372C11.6262 15.4758 10.3032 16.0178 8.76339 16.1928C8.35689 16.2396 7.46997 16.2346 7.08811 16.1804C5.32167 15.939 3.78681 15.1827 2.55499 13.9434C0.529866 11.9085 -0.179665 8.88064 0.729422 6.16323C1.39214 4.18492 2.72744 2.63775 4.56533 1.7188C5.43746 1.28274 6.28496 1.04623 7.34679 0.940291C7.6646 0.910727 8.60079 0.930436 8.95063 0.974782Z" fill="white"/>
<path d="M7.72869 1.81981C7.72869 1.84445 7.71145 2.14748 7.69174 2.49239C7.67203 2.8373 7.65479 3.19453 7.65479 3.28568V3.45321H7.82478H7.99231L8.00709 3.28568C8.01694 3.19453 8.02433 3.07135 8.02433 3.01222C8.02433 2.93585 8.04158 2.88657 8.08592 2.83484L8.14505 2.76339L8.23621 2.90382C8.28548 2.98265 8.39142 3.14772 8.47272 3.2709L8.61807 3.49756L8.81516 3.5148C8.92357 3.52466 9.01718 3.52712 9.02211 3.52219C9.02704 3.51727 8.88907 3.29554 8.71416 3.03439C8.53677 2.77078 8.39634 2.54659 8.40127 2.53673C8.40374 2.52688 8.55402 2.37167 8.73386 2.18936C8.91125 2.00951 9.05907 1.8543 9.05907 1.84691C9.05907 1.83706 8.97037 1.8272 8.85951 1.82228L8.65995 1.81488L8.35446 2.12777L8.04897 2.44065L8.06375 2.10806L8.081 1.77793H7.90608C7.75333 1.77793 7.72869 1.78286 7.72869 1.81981Z" fill="white"/>
<path d="M6.50169 1.90851C6.42285 1.92329 6.37604 1.943 6.38097 1.96025C6.38836 1.97749 6.4672 2.34211 6.56082 2.77572C6.65197 3.20932 6.72834 3.56655 6.72834 3.56655C6.73081 3.57148 7.07572 3.5222 7.08311 3.51481C7.08557 3.51235 7.02152 3.20193 6.94022 2.82253C6.85645 2.44559 6.77762 2.07604 6.76284 2.00459C6.73327 1.8617 6.73574 1.8617 6.50169 1.90851Z" fill="white"/>
<path d="M10.0371 2.25833C9.82281 2.33963 9.61586 2.55397 9.52224 2.78802C9.48036 2.89395 9.46804 2.97526 9.46558 3.15757C9.46558 3.3719 9.4705 3.40393 9.53949 3.52465C9.62571 3.68232 9.76368 3.80551 9.94599 3.8942C10.0642 3.95086 10.1135 3.95825 10.3279 3.95825C10.5545 3.95825 10.5841 3.95332 10.7048 3.88681C10.9388 3.75623 11.1064 3.52219 11.1655 3.23887C11.2468 2.84468 11.0817 2.50223 10.7196 2.31992C10.5791 2.24601 10.5299 2.23616 10.3451 2.22877C10.2022 2.22384 10.0987 2.2337 10.0371 2.25833ZM10.5496 2.58846C10.6654 2.64266 10.7688 2.74614 10.8058 2.84468C10.8994 3.08858 10.7368 3.47538 10.4855 3.60102C10.1628 3.76609 9.75136 3.47784 9.80802 3.12554C9.87947 2.69194 10.2268 2.43818 10.5496 2.58846Z" fill="white"/>
<path d="M4.98168 2.49726C4.86343 2.53421 4.27954 2.82 4.27954 2.83724C4.27954 2.85449 4.98907 4.32036 5.00385 4.33514C5.00878 4.33761 5.15414 4.26616 5.32659 4.17501C5.807 3.91879 5.97946 3.73648 6.01888 3.43837C6.06076 3.10824 5.81932 2.66479 5.52368 2.52682C5.39065 2.46277 5.12457 2.44799 4.98168 2.49726ZM5.37587 2.84217C5.51137 2.93086 5.64687 3.17476 5.65919 3.34229C5.67397 3.56895 5.60499 3.66996 5.34877 3.80792L5.18863 3.89169L4.95705 3.42606C4.82894 3.16984 4.723 2.9555 4.723 2.94811C4.723 2.9284 4.98661 2.81014 5.08023 2.78797C5.17877 2.76087 5.28471 2.78058 5.37587 2.84217Z" fill="white"/>
<path d="M11.8059 3.63066C11.6039 3.87456 11.3624 4.16281 11.2713 4.26875C11.1777 4.37468 11.1038 4.46584 11.1038 4.47323C11.1038 4.47816 11.1629 4.53236 11.2368 4.59395L11.3674 4.70728L11.5965 4.43627L11.8231 4.16774L12.0227 4.34265L12.2223 4.52004L12.3159 4.41656L12.407 4.31063L12.2124 4.13817C12.104 4.04209 12.0153 3.95586 12.0153 3.94847C12.0153 3.94108 12.067 3.86963 12.1286 3.79326L12.2444 3.65283L12.3109 3.70703C12.3504 3.7366 12.4563 3.83022 12.5524 3.91398L12.7224 4.06919L12.8259 3.94847C12.8801 3.88195 12.917 3.82282 12.9047 3.8179C12.8924 3.81297 12.7248 3.67008 12.5351 3.49516C12.3454 3.3227 12.1878 3.18228 12.1828 3.18474C12.1779 3.18474 12.0104 3.38676 11.8059 3.63066Z" fill="white"/>
<path d="M3.34835 3.52217L3.21777 3.63796L3.77456 4.27851C4.08005 4.63081 4.33873 4.92152 4.34859 4.92398C4.35844 4.92645 4.4225 4.87717 4.49394 4.81312L4.62205 4.69733L4.08005 4.08142C3.78195 3.74143 3.52327 3.45318 3.50848 3.43594C3.48631 3.4113 3.44936 3.43101 3.34835 3.52217Z" fill="white"/>
<path d="M2.63142 4.46585C2.35303 4.55454 2.13623 4.8354 2.13623 5.10147C2.13869 5.27639 2.28159 5.4858 2.43926 5.54493C2.61911 5.61391 2.78663 5.55971 3.07735 5.34044C3.29415 5.17784 3.38777 5.14828 3.46414 5.22465C3.61688 5.3774 3.43211 5.66565 3.14633 5.71492C3.05025 5.73216 3.04285 5.73956 2.98865 5.87259L2.93199 6.01056L2.98373 6.02534C3.2769 6.10418 3.62181 5.9194 3.78688 5.5942C3.9347 5.30842 3.78441 4.93641 3.4937 4.85757C3.32371 4.81322 3.21038 4.85264 2.89257 5.07191C2.75707 5.16306 2.67577 5.20248 2.61911 5.20248C2.52056 5.20248 2.45651 5.13842 2.45651 5.04234C2.45651 4.95119 2.6265 4.78612 2.77678 4.73192C2.87286 4.69743 2.89011 4.68019 2.90982 4.60135C2.93199 4.51758 2.92953 4.5028 2.87286 4.46092C2.80142 4.40672 2.82359 4.40672 2.63142 4.46585Z" fill="white"/>
<path d="M13.3827 4.49778C13.3408 4.52734 13.0304 4.74661 12.688 4.98065L12.0671 5.40686L12.1706 5.54483C12.2273 5.6212 12.2741 5.68526 12.2765 5.69018C12.2815 5.69758 12.5549 5.50787 12.72 5.38223L12.7988 5.3231L12.9614 5.53497C13.0526 5.65077 13.1314 5.74438 13.1364 5.74438C13.1413 5.74438 13.1955 5.71236 13.2546 5.6754L13.3655 5.60642L13.2078 5.38716C13.1216 5.26644 13.0575 5.16296 13.0625 5.15311C13.0797 5.12601 13.4197 4.89935 13.4295 4.90921C13.4345 4.91413 13.5108 5.03239 13.602 5.17282L13.7646 5.42657L13.8779 5.34527C13.9395 5.30093 13.9937 5.25905 14.0011 5.24919C14.0085 5.23687 13.5281 4.51502 13.4739 4.45836C13.464 4.4485 13.4221 4.46575 13.3827 4.49778Z" fill="white"/>
<path d="M7.88879 4.6333C7.60054 4.76388 7.38374 5.22211 7.34432 5.78136L7.32708 6.01048L7.18665 5.82078C6.81464 5.32066 6.24061 5.00039 5.99671 5.16052C5.88831 5.22951 5.84889 5.33791 5.83657 5.59659C5.81932 5.95382 5.88338 6.18294 6.14699 6.71262C6.15192 6.72494 6.10264 6.70523 6.03859 6.6732C5.97207 6.63871 5.82425 6.58205 5.70846 6.54263C5.52369 6.4835 5.46209 6.47365 5.16646 6.47365C4.87575 6.47119 4.82155 6.47858 4.73532 6.52292C4.53823 6.62393 4.50373 6.84073 4.63923 7.12159C4.72546 7.29651 5.09501 7.67098 5.30688 7.7917L5.46209 7.88039L5.24529 7.89764C4.82155 7.9272 4.45446 8.0627 4.23273 8.26965C4.03318 8.45689 4.01347 8.61949 4.16375 8.79194C4.37809 9.03585 4.82647 9.20091 5.33891 9.22555C5.44239 9.23047 5.46209 9.23787 5.42514 9.25265C5.39804 9.26497 5.29457 9.33148 5.19602 9.398C4.85111 9.63451 4.58503 9.99421 4.55793 10.2603C4.53823 10.4475 4.58996 10.5362 4.76242 10.615C4.87821 10.6668 4.93241 10.6766 5.14921 10.6766C5.49659 10.6742 5.66904 10.6274 6.13713 10.4056C6.14945 10.3982 6.12728 10.4426 6.09279 10.5017C5.77251 11.0166 5.71831 11.6793 5.97453 11.9109C6.10018 12.0243 6.33423 11.9996 6.59537 11.8469C6.75551 11.7533 7.14723 11.3739 7.25563 11.2039L7.33447 11.0831V11.1965C7.33447 11.6966 7.54388 12.2558 7.80503 12.4455C7.98241 12.5736 8.12777 12.5416 8.31747 12.3347C8.51456 12.1228 8.63528 11.768 8.66238 11.3394L8.67716 11.0831L8.77324 11.2285C8.97773 11.5365 9.33988 11.8493 9.60349 11.9405C9.66016 11.9602 9.76363 11.9774 9.83508 11.9774C10.079 11.9774 10.18 11.8025 10.18 11.3985C10.1775 11.0905 10.0519 10.7037 9.8671 10.4426C9.80798 10.3613 9.8129 10.3613 9.95333 10.4377C10.3623 10.6668 10.9807 10.7505 11.2467 10.6126C11.4635 10.4993 11.498 10.2923 11.3527 9.99421C11.2517 9.78726 10.9807 9.5064 10.7269 9.33888L10.5594 9.23047L10.7762 9.21569C11.1753 9.18613 11.5547 9.04816 11.774 8.85107C12.0573 8.59732 11.9489 8.31153 11.4857 8.08241C11.2443 7.96662 11.0595 7.91735 10.7787 7.89518L10.5668 7.88039L10.7516 7.75967C11.2492 7.43447 11.5522 6.92696 11.4118 6.65596C11.3478 6.53278 11.2024 6.47611 10.9191 6.46379C10.6284 6.45148 10.35 6.50814 10.0396 6.64364C9.93116 6.69045 9.84739 6.72001 9.85232 6.71016C9.85725 6.70031 9.90652 6.60422 9.96319 6.49582C10.1258 6.17801 10.18 5.97353 10.18 5.6705C10.18 5.36254 10.1233 5.2098 9.98782 5.14574C9.72914 5.02502 9.15511 5.36993 8.79541 5.8602L8.67716 6.02034L8.66238 5.77644C8.62296 5.19255 8.41355 4.74909 8.11791 4.62345C8.00458 4.57664 8.00951 4.57664 7.88879 4.6333ZM8.13269 5.27631C8.32732 5.70745 8.31747 6.31844 8.10806 6.89986C8.05878 7.03536 8.00951 7.14869 8.00212 7.14869C7.97995 7.14869 7.81735 6.63625 7.773 6.43423C7.75575 6.36032 7.74344 6.16077 7.74097 5.99077C7.74097 5.73702 7.75083 5.65079 7.8001 5.49804C7.89125 5.20241 7.97995 5.05705 8.03661 5.10386C8.05386 5.11864 8.09574 5.19501 8.13269 5.27631ZM6.37118 5.61876C6.52146 5.6976 6.72841 5.87991 6.85406 6.04497C6.99695 6.23714 7.16694 6.58698 7.23592 6.83334C7.29505 7.05507 7.32954 7.34578 7.29259 7.34578C7.28027 7.34578 7.18665 7.2768 7.08564 7.19057C6.67914 6.8432 6.34655 6.33076 6.26032 5.91686C6.22829 5.75426 6.22829 5.57195 6.26524 5.57195C6.27264 5.57195 6.31945 5.59413 6.37118 5.61876ZM9.76117 5.81832C9.70204 6.28395 9.29307 6.91218 8.8102 7.27926C8.76092 7.31622 8.71411 7.34578 8.70426 7.34578C8.67716 7.34578 8.71411 7.05507 8.76585 6.85798C8.90382 6.33322 9.21177 5.88484 9.58871 5.65818L9.73407 5.57195L9.75624 5.62615C9.76856 5.65818 9.76856 5.74441 9.76117 5.81832ZM5.43253 6.89247C5.89323 6.98855 6.41799 7.31622 6.7087 7.69562C6.77029 7.77446 6.8171 7.8459 6.81218 7.85329C6.80478 7.85822 6.7087 7.85083 6.59291 7.83851C6.03859 7.77199 5.38079 7.43694 5.1295 7.09449C5.00386 6.92696 4.994 6.88508 5.0753 6.8703C5.18124 6.85059 5.24529 6.85305 5.43253 6.89247ZM10.9955 6.88508C11.0152 6.90479 10.8871 7.09942 10.7737 7.21767C10.4929 7.51577 9.91391 7.78431 9.4335 7.83851C9.17482 7.86808 9.18221 7.86808 9.18221 7.84344C9.18221 7.83358 9.24873 7.74982 9.32756 7.65867C9.65769 7.2768 10.1184 6.99348 10.5766 6.89247C10.7343 6.85798 10.9634 6.85305 10.9955 6.88508ZM7.84198 7.55519C7.98487 7.64881 8.17457 7.59461 8.27066 7.43694L8.31993 7.3581V7.42708C8.31993 7.67345 8.56383 7.83605 8.77324 7.72765C8.86686 7.67837 8.87425 7.68084 8.82991 7.74736C8.68948 7.96169 8.83483 8.2327 9.09105 8.2327H9.18467L9.08613 8.32631C8.92352 8.47906 8.9186 8.66137 9.07134 8.79687C9.17482 8.88556 9.17728 8.89788 9.09598 8.89788C9.00975 8.89788 8.90135 8.95701 8.83976 9.03585C8.77324 9.11961 8.77324 9.25511 8.8373 9.35858C8.8915 9.44974 8.88657 9.45713 8.80034 9.40047C8.76585 9.37829 8.69441 9.36105 8.63774 9.36105C8.46529 9.36351 8.35935 9.46945 8.32486 9.66408L8.30515 9.77248L8.2608 9.6961C8.20414 9.60002 8.10067 9.53843 7.99966 9.53843C7.89865 9.53843 7.82966 9.57539 7.74836 9.67147L7.68184 9.74784L7.67938 9.67886C7.67938 9.51379 7.52417 9.34134 7.37882 9.34134C7.34679 9.34134 7.28027 9.36351 7.22853 9.38815C7.12999 9.43742 7.11767 9.43003 7.17433 9.35612C7.22853 9.28467 7.22114 9.11468 7.15955 9.03585C7.09796 8.95701 6.98956 8.89788 6.90333 8.89788C6.86884 8.89788 6.84174 8.89295 6.84174 8.88803C6.84174 8.8831 6.88609 8.83383 6.94029 8.77963C7.02898 8.6934 7.03883 8.66876 7.03883 8.56282C7.03883 8.45689 7.02898 8.43718 6.92797 8.33863C6.82203 8.23762 6.81957 8.2327 6.87869 8.2327C6.97478 8.2327 7.09796 8.17357 7.15709 8.09719C7.22114 8.01589 7.22853 7.86068 7.1768 7.75721C7.13491 7.6833 7.14723 7.67591 7.23592 7.72765C7.42809 7.83605 7.67938 7.66852 7.67938 7.42708V7.3581L7.73112 7.43694C7.75822 7.47882 7.80749 7.53302 7.84198 7.55519ZM6.05337 8.36327C6.18148 8.39776 6.36379 8.45689 6.45741 8.49877L6.6274 8.57022L6.43277 8.64659C6.05337 8.78948 5.93019 8.81165 5.48673 8.80919C5.04327 8.80919 4.89792 8.77963 4.66141 8.6392C4.52837 8.56282 4.53823 8.53572 4.723 8.44211C5.05806 8.27211 5.58035 8.24255 6.05337 8.36327ZM11.0028 8.34356C11.1827 8.38791 11.4537 8.52341 11.4414 8.56282C11.4291 8.6121 11.1186 8.75006 10.9314 8.78948C10.6505 8.84861 10.1258 8.82644 9.84739 8.74267C9.58378 8.66383 9.39162 8.57761 9.41872 8.55297C9.4877 8.49138 9.94348 8.34849 10.212 8.30661C10.3968 8.27704 10.8033 8.29675 11.0028 8.34356ZM6.76537 9.34627C6.52146 9.69364 6.03366 10.0558 5.6247 10.1888C5.46209 10.243 5.17138 10.28 5.07284 10.2578L4.98907 10.2406L5.09255 10.0878C5.2108 9.90798 5.33152 9.79958 5.57789 9.64437C5.90555 9.44235 6.37611 9.29207 6.75058 9.26989L6.81957 9.26743L6.76537 9.34627ZM9.74885 9.35366C10.1036 9.44974 10.4879 9.64683 10.7047 9.84639C10.8821 10.009 11.0275 10.2135 10.993 10.248C10.9831 10.2578 10.8944 10.2627 10.7959 10.2603C10.4756 10.2529 10.0667 10.0854 9.72421 9.82175C9.57393 9.70596 9.20684 9.32409 9.20684 9.28467C9.20684 9.24772 9.48277 9.28467 9.74885 9.35366ZM7.27288 10.1125C7.18911 10.5313 6.99695 10.9058 6.71609 11.2014C6.55596 11.3689 6.28003 11.5537 6.24061 11.5167C6.23322 11.5094 6.22583 11.4552 6.22583 11.401C6.22829 10.9476 6.63726 10.2775 7.17433 9.85131L7.29751 9.75277L7.30491 9.83407C7.30983 9.87595 7.29505 10.0041 7.27288 10.1125ZM8.91121 9.92276C9.26104 10.2061 9.60596 10.6988 9.70943 11.0684C9.74392 11.1965 9.7587 11.327 9.75131 11.465C9.74885 11.5266 9.74392 11.5315 9.68479 11.5094C9.6503 11.4946 9.569 11.4478 9.50741 11.4059C9.09598 11.125 8.76339 10.5116 8.7018 9.9203C8.67962 9.72813 8.66977 9.72567 8.91121 9.92276ZM8.09327 10.1962C8.23863 10.6077 8.25588 10.7037 8.25588 11.1275C8.25588 11.502 8.25341 11.5315 8.18689 11.7064C8.11545 11.8937 8.03907 12.0267 7.99966 12.0267C7.98734 12.0267 7.94053 11.9503 7.89372 11.8567C7.72865 11.5266 7.68924 11.0413 7.79025 10.5978C7.83952 10.3909 7.97748 9.98189 7.99966 9.98189C8.00951 9.98189 8.05139 10.078 8.09327 10.1962Z" fill="white"/>
<path d="M7.71636 7.97146C7.47739 8.08479 7.35913 8.27942 7.35913 8.5652C7.35913 8.8362 7.48478 9.04069 7.71882 9.15894C7.85925 9.22792 8.17214 9.223 8.30764 9.15155C8.62545 8.98402 8.7437 8.58984 8.57617 8.26464C8.41604 7.94929 8.03663 7.82118 7.71636 7.97146Z" fill="white"/>
<path d="M3.37791 12.3888C3.06749 12.7066 2.81127 12.9776 2.80635 12.9875C2.79403 13.0195 3.37545 13.5048 3.50602 13.5689C3.58979 13.6083 3.69819 13.6379 3.79673 13.6453C3.92977 13.6576 3.97412 13.6502 4.09237 13.596C4.28454 13.5073 4.48409 13.3102 4.58264 13.1131C4.64669 12.9801 4.66147 12.9234 4.66147 12.7904C4.65901 12.5169 4.54322 12.3395 4.10469 11.9503L3.94209 11.8049L3.37791 12.3888ZM4.24758 12.5292C4.3683 12.7017 4.32888 12.916 4.13425 13.118C4.01846 13.2437 3.88789 13.3077 3.75731 13.3077C3.63906 13.3077 3.55776 13.2634 3.39269 13.1156L3.28183 13.017L3.41733 12.8717C3.49124 12.7928 3.65138 12.6278 3.7721 12.5021L3.99136 12.2755L4.08744 12.3543C4.13918 12.3986 4.21063 12.4775 4.24758 12.5292Z" fill="white"/>
<path d="M11.4735 12.2559C11.439 12.2855 11.3799 12.3347 11.3429 12.3643L11.2739 12.416L11.8726 13.0246L12.4688 13.6306L12.831 13.2685L13.1931 12.9063L13.0675 12.8004L12.9394 12.6944L12.7176 12.9137L12.4959 13.1354L12.0278 12.6673C11.7716 12.4086 11.5548 12.1992 11.5474 12.1992C11.54 12.1992 11.508 12.2263 11.4735 12.2559Z" fill="white"/>
<path d="M10.4191 12.9777C10.2713 13.0714 10.2441 13.0985 10.254 13.1428C10.2589 13.1724 10.323 13.5518 10.392 13.9854C10.461 14.419 10.5201 14.7861 10.525 14.8033C10.5299 14.8206 10.5891 14.8033 10.6851 14.754L10.8354 14.6752L10.8206 14.5545C10.8133 14.488 10.7985 14.4042 10.7911 14.3672C10.7788 14.2933 10.7763 14.2958 11.2198 14.0445L11.3232 13.9854L11.471 14.1307L11.6164 14.2736L11.7765 14.1775L11.9367 14.0815L11.3553 13.5493C11.0325 13.2537 10.7369 12.9802 10.6925 12.9383C10.6482 12.8989 10.6112 12.8644 10.6063 12.8669C10.6014 12.8669 10.5176 12.9186 10.4191 12.9777ZM10.8576 13.5419C10.9857 13.67 11.0818 13.7809 11.0719 13.7907C11.035 13.8277 10.7492 13.9952 10.7393 13.9854C10.7196 13.9681 10.5965 13.3079 10.6112 13.3079C10.6186 13.3079 10.7295 13.4138 10.8576 13.5419Z" fill="white"/>
<path d="M4.99399 13.4999C4.81168 13.835 4.63184 14.1651 4.59242 14.2365L4.52344 14.3647L4.67126 14.4632L4.81908 14.5642L5.03834 14.1626C5.43992 13.4334 5.63947 13.0589 5.63208 13.0515C5.62715 13.0466 5.55571 13.0096 5.47194 12.9678L5.32166 12.8914L4.99399 13.4999Z" fill="white"/>
<path d="M9.15768 13.4582C8.87929 13.5247 8.63292 13.5789 8.61075 13.5789C8.58612 13.5789 8.56641 13.5863 8.56641 13.5937C8.56641 13.606 8.61322 13.8179 8.628 13.8647C8.63292 13.8844 8.69698 13.8794 8.83741 13.845C8.94827 13.8203 9.04189 13.8006 9.04682 13.8055C9.04928 13.8105 9.11826 14.1184 9.1971 14.4904C9.27594 14.8624 9.33999 15.1704 9.33999 15.1729C9.34246 15.1753 9.41637 15.1581 9.50998 15.1359C9.61099 15.1113 9.67505 15.0842 9.67505 15.0645C9.67505 15.0448 9.61346 14.7417 9.53955 14.387C9.46564 14.0322 9.40651 13.739 9.41144 13.7366C9.4139 13.7341 9.50259 13.7095 9.60853 13.6824C9.71447 13.6553 9.80809 13.6257 9.81548 13.6208C9.8204 13.6134 9.80809 13.5469 9.78345 13.4705C9.75389 13.3769 9.72679 13.3325 9.70215 13.335C9.67998 13.335 9.43608 13.3916 9.15768 13.4582Z" fill="white"/>
<path d="M6.25779 13.4335C5.90795 13.569 5.65666 13.9928 5.69115 14.3993C5.72811 14.8427 6.04345 15.1137 6.5214 15.1187C6.70371 15.1187 6.75052 15.1088 6.87124 15.0497C7.08312 14.9462 7.25064 14.7121 7.29745 14.4658L7.31224 14.3796L6.95254 14.2835C6.75545 14.2317 6.59039 14.1923 6.58546 14.1972C6.5756 14.2096 6.49677 14.4461 6.49677 14.4658C6.49677 14.4756 6.58546 14.5027 6.69386 14.5274C6.80226 14.552 6.89095 14.5791 6.89095 14.589C6.89095 14.6111 6.7382 14.7516 6.67661 14.7836C6.59778 14.8255 6.42286 14.8156 6.31199 14.7639C6.03853 14.6407 5.9794 14.3574 6.15432 14.0026C6.2775 13.7489 6.49677 13.6479 6.73081 13.7365C6.85892 13.7858 6.9895 13.9238 6.9895 14.01C6.9895 14.0691 6.99442 14.0716 7.17427 14.0716C7.34426 14.0716 7.35904 14.0667 7.35904 14.0223C7.35904 13.9533 7.29745 13.808 7.21862 13.6971C7.04123 13.4384 6.57807 13.3103 6.25779 13.4335Z" fill="white"/>
<path d="M7.85181 14.4288V15.2542H8.02426H8.19672V14.4288V13.6035H8.02426H7.85181V14.4288Z" fill="white"/>
</svg>
