<?xml version="1.0" standalone="no"?>
<!DOCTYPE svg PUBLIC "-//W3C//DTD SVG 20010904//EN"
 "http://www.w3.org/TR/2001/REC-SVG-20010904/DTD/svg10.dtd">
<svg version="1.0" xmlns="http://www.w3.org/2000/svg"
 width="1024.000000pt" height="1024.000000pt" viewBox="0 0 1024.000000 1024.000000"
 preserveAspectRatio="xMidYMid meet">

<g transform="translate(0.000000,1024.000000) scale(0.100000,-0.100000)"
fill="#000000" stroke="none">
<path d="M5000 7833 c-683 -36 -1305 -306 -1784 -773 -266 -260 -464 -546
-600 -872 -304 -725 -280 -1565 64 -2264 238 -484 598 -872 1054 -1138 328
-191 694 -314 1075 -362 150 -18 470 -21 621 -4 1112 120 2057 938 2330 2015
63 248 84 420 84 695 0 243 -11 356 -55 569 -131 638 -523 1236 -1060 1618
-347 246 -734 408 -1144 478 -131 22 -417 47 -495 43 -19 -1 -60 -3 -90 -5z
m545 -152 c733 -127 1354 -527 1756 -1129 339 -509 481 -1128 403 -1762 -70
-574 -322 -1085 -741 -1506 -202 -203 -416 -355 -678 -484 -260 -127 -502
-205 -770 -246 -170 -27 -611 -27 -770 0 -490 81 -933 279 -1295 579 -382 317
-686 781 -824 1258 -73 254 -100 483 -93 794 6 305 36 488 123 756 303 941
1144 1627 2152 1754 164 21 581 13 737 -14z"/>
<path d="M4900 7160 l0 -270 50 0 50 0 0 88 c0 83 2 90 28 114 l27 26 85 -114
85 -114 65 0 c36 0 60 4 55 8 -13 9 -215 280 -215 288 0 4 45 57 100 119 55
63 100 116 100 119 0 3 -26 6 -59 6 l-58 0 -98 -110 c-53 -60 -101 -110 -107
-110 -5 0 -8 43 -6 110 l3 110 -52 0 -53 0 0 -270z"/>
<path d="M4519 7363 c-46 -13 -47 -14 -39 -46 14 -61 111 -432 121 -463 l10
-32 47 13 c32 8 47 17 46 28 -2 27 -126 502 -133 508 -3 3 -27 0 -52 -8z"/>
<path d="M5690 7331 c-48 -16 -105 -49 -132 -78 -100 -107 -102 -271 -3 -381
141 -157 381 -118 467 76 42 95 5 251 -75 318 -70 59 -187 88 -257 65z m169
-114 c50 -33 76 -87 76 -157 -1 -159 -171 -254 -282 -157 -58 51 -76 106 -62
184 26 137 159 202 268 130z"/>
<path d="M4011 7155 c-42 -19 -201 -115 -201 -122 0 -5 224 -438 239 -462 7
-11 30 -2 113 49 171 104 211 155 212 270 1 155 -120 281 -268 280 -34 -1 -76
-7 -95 -15z m176 -114 c79 -57 107 -177 57 -244 -23 -30 -105 -88 -129 -90
-11 -2 -40 43 -96 150 l-80 152 53 30 c73 42 139 43 195 2z"/>
<path d="M6220 6864 c-78 -120 -144 -222 -146 -229 -3 -6 13 -26 35 -43 l40
-32 62 95 62 94 51 -36 c28 -21 65 -48 82 -60 l31 -23 28 36 c15 19 23 39 19
43 -5 4 -42 31 -82 61 -47 34 -71 58 -68 67 3 7 20 36 38 62 l32 49 75 -55
c42 -31 87 -64 100 -75 32 -25 37 -23 65 19 l25 36 -149 104 c-82 56 -151 103
-153 103 -3 0 -69 -97 -147 -216z"/>
<path d="M3530 6815 l-34 -35 26 -27 c14 -16 94 -104 178 -198 84 -93 155
-171 159 -173 4 -1 23 15 43 35 l36 38 -179 195 c-98 107 -182 196 -186 197
-5 2 -24 -13 -43 -32z"/>
<path d="M6774 6627 c-38 -34 -129 -113 -202 -176 -141 -122 -138 -116 -90
-174 l23 -28 80 71 80 71 40 -43 c22 -24 55 -60 73 -81 34 -40 48 -40 85 1 18
19 16 22 -52 98 -39 44 -71 82 -71 86 0 8 109 102 113 97 2 -2 32 -38 68 -80
36 -42 73 -86 82 -99 l16 -23 36 27 c19 15 35 30 35 34 -1 8 -229 276 -239
279 -3 2 -38 -25 -77 -60z"/>
<path d="M5051 6485 c-27 -26 -65 -77 -85 -115 -38 -72 -76 -200 -76 -257 0
-42 -9 -42 -39 3 -41 59 -131 133 -215 175 -67 33 -88 39 -143 39 l-64 0 -22
-47 c-19 -42 -22 -64 -21 -178 0 -116 3 -138 27 -201 15 -39 27 -74 27 -77 0
-2 -37 8 -82 24 -207 71 -391 61 -435 -24 -13 -26 -14 -39 -4 -81 24 -107 109
-239 200 -311 28 -22 51 -43 51 -47 0 -5 -13 -8 -29 -8 -51 0 -185 -48 -247
-88 -74 -48 -144 -126 -144 -160 0 -90 181 -213 358 -244 40 -6 71 -15 70 -19
-2 -4 -26 -25 -54 -47 -65 -51 -135 -142 -174 -224 -36 -76 -42 -165 -12 -190
68 -59 301 -48 458 22 42 18 45 18 39 2 -70 -167 -73 -425 -6 -487 32 -28 114
-16 208 30 58 29 99 59 163 122 46 46 86 83 87 83 2 0 3 -13 3 -28 0 -16 9
-63 19 -104 47 -181 159 -321 242 -303 93 21 203 212 224 388 l6 57 46 -56
c109 -133 287 -225 388 -200 73 18 91 239 34 428 -11 38 -19 72 -16 74 2 2 29
-7 59 -20 139 -62 355 -61 428 1 25 21 30 32 30 71 0 108 -137 308 -246 360
-38 18 -44 32 -13 32 41 0 183 42 239 70 70 35 165 120 178 159 14 38 -4 74
-65 128 -78 70 -205 126 -337 148 l-40 7 32 15 c18 9 64 49 102 90 117 126
182 291 134 344 -40 44 -73 54 -184 53 -108 -1 -187 -16 -276 -54 -26 -11 -48
-19 -50 -17 -2 1 8 33 21 69 36 98 50 220 37 309 -15 101 -33 123 -106 127
-95 5 -210 -58 -326 -180 l-66 -68 -17 91 c-28 148 -104 291 -181 338 -52 32
-80 27 -135 -24z m124 -317 c62 -137 53 -378 -21 -545 -21 -49 -26 -55 -39
-42 -8 8 -26 57 -40 109 -35 129 -43 289 -21 385 18 73 59 145 83 145 8 0 25
-24 38 -52z m-494 -135 c56 -52 131 -166 160 -244 24 -62 71 -251 64 -257 -10
-11 -120 86 -175 155 -77 95 -103 141 -134 235 -28 84 -32 128 -14 146 22 22
48 13 99 -35z m1007 -4 c4 -60 -27 -153 -80 -243 -40 -68 -224 -266 -247 -266
-17 0 -13 47 14 150 56 210 200 417 285 408 22 -3 25 -8 28 -49z m-1316 -365
c40 -15 98 -42 128 -62 60 -38 250 -221 250 -241 0 -15 -25 -11 -155 25 -115
32 -264 106 -327 163 -53 47 -93 114 -83 138 8 22 91 11 187 -23z m1692 30
c43 -16 -5 -115 -81 -167 -72 -50 -229 -116 -343 -146 -63 -16 -118 -27 -122
-25 -13 8 47 87 102 137 138 124 370 229 444 201z m-807 -300 c101 -48 163
-149 163 -264 0 -114 -57 -208 -161 -265 -46 -25 -65 -29 -129 -29 -91 -1
-148 22 -210 84 -59 59 -83 119 -84 205 -1 222 220 363 421 269z m-831 -175
c88 -12 232 -54 252 -73 29 -28 -176 -94 -318 -103 -266 -17 -441 95 -241 154
111 32 193 38 307 22z m1646 -4 c37 -7 88 -23 113 -34 51 -23 58 -45 22 -79
-39 -37 -105 -54 -227 -59 -101 -5 -127 -2 -210 20 -106 28 -190 62 -190 75 0
14 104 50 205 72 109 23 198 24 287 5z m-1332 -304 c0 -48 -182 -221 -289
-275 -100 -51 -259 -84 -275 -57 -19 31 81 150 174 206 71 43 183 88 297 119
48 14 89 25 91 25 1 1 2 -8 2 -18z m975 -41 c134 -47 203 -84 271 -145 58 -51
109 -128 98 -147 -8 -13 -85 -9 -148 7 -82 22 -183 77 -263 144 -70 58 -163
166 -163 187 0 16 80 -2 205 -46z m-815 -214 c-38 -205 -133 -373 -257 -455
-73 -48 -90 -14 -58 114 36 142 136 291 265 392 64 50 69 45 50 -51z m511 48
c151 -110 279 -331 279 -480 0 -41 -2 -44 -28 -44 -46 0 -170 138 -230 255
-17 34 -82 269 -82 296 0 15 10 10 61 -27z m-252 -63 c40 -95 55 -178 55 -326
1 -155 -12 -211 -60 -256 l-26 -24 -24 28 c-42 49 -59 128 -58 272 0 72 6 150
12 175 18 65 64 180 72 180 4 0 17 -22 29 -49z"/>
<path d="M5033 5309 c-22 -11 -54 -39 -70 -61 -25 -37 -28 -50 -28 -118 0 -67
4 -82 28 -118 65 -99 205 -117 294 -39 144 127 61 357 -129 357 -33 0 -68 -8
-95 -21z"/>
<path d="M3271 6489 c-105 -53 -152 -195 -90 -273 55 -70 123 -74 211 -11 107
76 134 88 166 73 38 -19 50 -59 29 -102 -21 -45 -56 -67 -112 -74 l-45 -5 0
-43 0 -44 41 0 c26 0 60 10 90 27 148 80 175 275 46 337 -64 30 -101 18 -212
-63 -75 -55 -104 -62 -135 -31 -47 47 2 140 74 140 42 0 52 16 39 57 -12 36
-45 40 -102 12z"/>
<path d="M3578 3877 c-73 -78 -156 -166 -183 -195 l-49 -53 79 -79 c89 -90
152 -128 224 -137 103 -12 208 47 265 147 26 47 31 65 31 125 0 49 -6 82 -19
108 -22 45 -97 129 -165 186 l-48 41 -135 -143z m205 -46 c80 -85 85 -167 15
-247 -77 -87 -172 -91 -264 -9 l-49 42 87 94 c48 52 102 110 120 131 18 20 36
37 39 37 4 1 27 -21 52 -48z"/>
<path d="M6370 3885 l-33 -35 188 -182 c103 -101 191 -183 194 -183 3 0 60 55
125 123 l119 123 -33 34 -34 35 -88 -86 -87 -87 -154 146 c-85 81 -156 147
-159 147 -2 0 -19 -16 -38 -35z"/>
<path d="M6025 3619 c-16 -11 -36 -23 -44 -28 -11 -7 -6 -53 29 -272 23 -145
44 -274 47 -286 l5 -22 48 24 47 24 -8 43 c-15 81 -16 80 80 136 49 29 94 52
99 52 5 0 17 -9 28 -21 10 -12 32 -30 47 -41 l28 -20 39 36 39 35 -117 98
c-191 161 -319 263 -328 262 -5 0 -22 -9 -39 -20z m70 -121 c7 -7 44 -40 83
-73 39 -33 71 -62 71 -65 0 -3 -27 -21 -62 -42 l-62 -36 -8 31 c-19 69 -45
197 -40 197 2 0 10 -6 18 -12z"/>
<path d="M4061 3394 c-68 -129 -121 -237 -119 -238 16 -13 89 -49 91 -45 3 3
234 447 245 469 2 5 -81 50 -92 50 -1 0 -58 -106 -125 -236z"/>
<path d="M5550 3433 c-96 -24 -176 -46 -178 -48 -2 -2 -1 -23 3 -48 l7 -44 74
17 c41 10 76 15 78 11 2 -3 27 -103 56 -221 29 -118 53 -216 54 -217 4 -7 96
23 96 31 0 6 -22 102 -50 212 -27 111 -50 207 -52 214 -2 7 12 17 32 22 19 5
51 13 71 19 l35 9 -10 45 c-7 30 -15 45 -26 43 -8 0 -94 -21 -190 -45z"/>
<path d="M4504 3436 c-46 -20 -112 -83 -135 -129 -32 -62 -40 -137 -23 -204
39 -149 185 -239 345 -214 108 18 111 21 136 146 12 60 21 111 19 112 -8 8
-202 40 -207 35 -4 -4 -10 -26 -14 -48 l-6 -42 38 -6 c73 -13 75 -15 68 -49
-4 -18 -14 -38 -23 -44 -21 -17 -127 -16 -160 1 -56 29 -102 103 -102 163 0
81 59 171 127 194 74 24 165 -8 197 -69 13 -25 19 -27 59 -24 45 4 45 4 36 34
-18 64 -71 116 -148 143 -54 19 -165 19 -207 1z"/>
<path d="M5072 3103 l3 -278 53 -3 52 -3 0 280 0 281 -56 0 -55 0 3 -277z"/>
</g>
</svg>
